<?xml version="1.0" encoding="utf-8"?>
<!-- Generator: Adobe Adobe Illustrator 24.2.0, SVG Export Plug-In . SVG Version: 6.00 Build 0)  -->
<svg version="1.1" xmlns="http://www.w3.org/2000/svg" xmlns:xlink="http://www.w3.org/1999/xlink" x="0px" y="0px"
	 viewBox="0 0 612 792" style="enable-background:new 0 0 612 792;" xml:space="preserve">
<style type="text/css">
	.st0{fill:#DBCAB2;}
	.st1{fill:#C2B29B;}
	.st2{fill:#FFFFFF;stroke:#000000;stroke-miterlimit:10;}
	.st3{fill:#F32A11;}
</style>
<g id="Layer_2">
	<path class="st0" d="M437.13,228.31c-1.17-5.7-3.72-14.55-9.26-17.95c-4.93-3.03-10.45-1.95-15.61-0.38
		c-0.65,0.2-1.3,0.41-1.95,0.63c-1.05-0.86-2.28-1.46-3.78-1.62c-16.56-1.79-32.57,4.73-48.33,8.78c-1.53,0.39-3.07,0.78-4.6,1.17
		c-2.81,0.39-5.62,0.79-8.41,1.22c-21.81,3.39-42.87,10.12-64.12,15.87c-21.33,5.77-42.99,10.12-63.77,17.77
		c-2.96,1.09-5.88,2.27-8.77,3.51c-1.44-1.98-3.19-3.38-5.11-2.73c-19.28,6.5-36.3,16.49-50.87,29.99
		c-1.84,1.22-3.66,2.46-5.47,3.74c-6.16,2.96-12.32,6.16-17.57,10.28c-2.15-0.21-4.31-0.14-6.33,0.28c-1.33,0.28-2.54,0.73-3.65,1.3
		c-5.24-0.08-8.74,3.29-11.31,7.54c-0.77,0.22-1.54,0.5-2.32,0.88c-3.83,1.84-5.43,8.45-6.44,12.01
		c-1.87,6.53-2.78,13.52-2.66,20.31c0.09,5.67,0.57,11.36,1.69,16.92c0.63,3.13,3.32,13.79,7.41,15.41c0.07,0.03,0.14,0.06,0.2,0.09
		c1.13,3.03,2.71,5.86,5.21,7.63c4.32,3.05,8.14,6.51,12.5,9.11c0,0,0,0,0,0c0.24,1.79,0.57,3.55,1,5.28
		c1.34,5.44,2.88,11.67,7.41,15.41c1.63,1.35,3.21,2.75,4.69,4.25c0.59,0.6,1.16,1.22,1.73,1.84c0.17,0.2,0.41,0.5,0.68,0.84
		c2.88,3.64,5.64,7.36,8.4,11.09c0.39,0.53,0.8,1.04,1.2,1.56c1.83,3.76,3.82,7.45,5.84,11.09c1.72,3.09,3.4,6.2,5.07,9.32
		c0.03,0.05,0.05,0.1,0.08,0.15c0.05,0.15,0.11,0.32,0.19,0.53c0.63,1.72,3.06,9.14,0.76,1.01c1.12,3.98,5.26,19.13,12.2,16.46
		c0.35-1.22,0.96-2.28,2.03-2.41c0.62-0.07,1.25-0.11,1.88-0.12c0.47-0.29,0.94-0.56,1.43-0.81c0.48-0.09,0.97-0.14,1.46-0.16
		c0.18,0.41,0.36,0.82,0.55,1.23c3.15,0.47,6.3,1.53,9.11,2.67c0.42,0.17,0.76,0.54,1.04,1.06c1.01-0.06,2.01-0.11,3.02-0.14
		c0.33-1.46,0.93-2.6,1.85-2.98c4.92-2.03,11.34-0.62,16.31,0.54c4.61,1.08,10.31,2.47,12.71,6.88c9.17-1.83,17.64-5.82,26.36-9.22
		c1.87-0.63,3.77-1.21,5.67-1.75c1.53,3.38,4.15,7.37,7.87,7.59c15.84,0.94,31.54-6.65,45.73-12.78
		c15.35-6.63,31.18-12.54,45.33-21.58c5.76-3.68,11.58-7.62,17.24-11.81c4.57-2.6,8.9-5.76,12.87-9.71
		c1.34-1.33,2.65-2.74,3.95-4.17c1.8-1.67,3.55-3.38,5.24-5.12c4.55-4.69,9.23-9.2,13.39-14.24c6.18-7.48,9.02-17.21,9.97-27.09
		c5.53-11.1,8.08-23.08,8.94-35.46c0.41-5.9,0.71-11.85,0.82-17.77c-0.27,13.59,0.23-0.58,0.52-4.02
		c0.77-9.08,1.53-18.21,2.18-27.35c0.82-0.71,1.51-1.6,2.07-2.69c2.16-3.75,3.64-7.76,4.45-12.03
		C439.09,253,439.69,240.74,437.13,228.31z M270.79,466.47c0.12-0.15,0.28-0.36,0.45-0.57c0.14-0.12,0.31-0.26,0.53-0.42
		c0.04-0.03,0.07-0.05,0.1-0.08C271.74,465.97,270.98,466.48,270.79,466.47z"/>
	<path class="st1" d="M427.1,235.02c-1.07-1.06-1.94-0.1-2.58,1.34c0.15-0.6,0.29-1.21,0.41-1.83c1.19-0.01,2.35-0.26,3.52-0.52
		c1.18-0.26,1.85-1.37,2.25-2.67c0.63-1.63,0.78-3.63,0.73-5.2c-0.02-0.77-0.08-1.5-0.16-2.23c0-0.06-0.01-0.11-0.02-0.17
		c-0.08-1.15-0.27-2.28-0.6-3.35c-0.62-2.02-1.76-3.26-2.87-2.59c-0.81-0.41-1.68-0.68-2.57-0.83c-0.69-4.88-2.32-9.94-6.19-10.22
		c-8.91-0.64-17.11,0.96-25.39,3.24c-2.21,0.28-4.41,0.62-6.55,1.16c-0.92,0.23-1.73,0.75-2.43,1.48c-2.16,0.66-4.34,1.31-6.52,1.94
		c-1.01-1.81-2.34-2.92-4.11-2.63c-19.06,3.03-37.34,10.35-55.8,15.76c-18.55,5.43-37.23,10.47-55.61,16.45
		c-1.37,0.45-2.73,0.92-4.09,1.39c-0.4-0.4-0.85-0.64-1.37-0.64c-7.65-0.03-14.89,1.77-21.83,4.56c-0.04,0.01-0.08,0.01-0.12,0.02
		c-1.19,0.39-2.38,0.77-3.57,1.15c-0.41-0.6-0.91-0.89-1.49-0.71c-7.36,2.28-14.52,5.01-21.55,8.04c-2.56,0.87-5.11,1.78-7.64,2.73
		c-5.1,1.38-10.18,2.78-15.1,4.58c-14.23,5.2-28.63,11.6-39.74,22.17c-0.51,0.48-0.98,1.44-1.38,2.65
		c-7.48,3.39-14.75,7.25-21.98,11.21c-7.2,3.61-14.82,6.69-21.23,11.51c-7.3,5.5-7.04,42.05,3.8,37.27
		c7.32-3.22,14.33-7.04,21.34-10.9c0.78-0.19,1.57-0.38,2.34-0.57c1.07,0.77,2.37,0.91,3.92,0.01c5.13-2.96,9.74-6.6,14.36-10.24
		c1.67-0.78,3.34-1.54,5.04-2.26c8.49-3.6,17.41-5.97,25.89-9.65c0.58-0.25,1.16-0.51,1.74-0.77c8.2-2.02,16.26-4.55,24.3-7.15
		c0.43,0.47,0.96,0.76,1.59,0.78c7.47,0.25,14.45-4.16,21.22-6.75c10.11-3.86,20.44-7.14,30.56-10.97c8.46-3.2,16.9-6.5,25.55-9.17
		c5.87-1.81,13.04-3.85,16.04-9.74c0.06-0.12,0.12-0.28,0.19-0.47c3.88-1.11,7.76-2.22,11.63-3.33
		c16.22-4.67,32.37-10.81,48.85-14.91c3.38-0.36,6.73-1.32,9.99-2.2c0.04-0.01,0.07-0.02,0.11-0.03c1.34-0.25,2.69-0.49,4.03-0.7
		c0.8-0.13,1.5-0.43,2.13-0.86c1.71-0.09,3.43-0.15,5.14-0.22c4.74-0.19,9.44-0.56,14.11-1.43c4.3-0.8,9.44-1.39,12.89-4.22
		c0.66-0.17,1.24-0.57,1.74-1.12c3.01-0.19,6.01-0.22,8.99-0.03c0.5,0.03,0.96-0.05,1.39-0.2c-0.49,2.74-0.19,6.05,0.29,8.01
		c3.43,13.99-0.02,28.8-1.67,42.82c-1.91,16.26-3.53,32.22-7.76,48.08c-3.76,14.1-10.17,25.4-20.53,35.71
		c-5.04,5.02-10.48,9.52-16.19,13.75c-5.67,4.2-11.88,8.29-14.84,14.9c-0.05,0.12-0.11,0.3-0.16,0.51
		c-8.01,6.64-18.63,9.14-27.23,14.72c-12,4.01-24.25,7.19-36.68,9.58c-14.42,2.78-29,4.04-43.5,6.18
		c-14.43,2.13-28.74,4.7-43.34,5.34c-7.46,0.33-14.93,0.74-22.39,1.25c-7.23,0.49-14.27,2.42-21.47,0.72
		c-3.41-0.8-4.98,15.59,0,16.76c7.05,1.66,13.98-0.13,21.05-0.69c0.15,3.32,0.99,6.35,2.45,6.89c0.27,0.1,0.55,0.17,0.83,0.26
		c0,0.01,0,0.03,0,0.04c0.04,0,0.09,0,0.13,0c1.56,0.48,3.13,0.75,4.71,0.89c0.33-0.7,0.77-1.22,1.34-1.45
		c4.92-2.03,11.34-0.62,16.31,0.54c0.28,0.07,0.56,0.13,0.85,0.2c2.18-0.06,4.36-0.1,6.56-0.12c14.41-0.11,28.26-2.34,42.36-5.13
		c14.42-2.86,28.75-6.19,42.98-9.89c7.68-1.99,15.17-4.24,21.92-7.94c0.56,0.89,1.24,1.24,2.01,0.71
		c7.61-5.18,16.14-8.49,24.26-12.74c0.57-0.3,1.12-0.62,1.68-0.93c6.27-2.87,12.39-6.01,17.74-10.53c0.49-0.41,0.9-1.21,1.23-2.23
		c0.99-0.68,1.99-1.34,2.99-1.99c15.43-9.94,27.98-22.44,37.16-38.43c9.53-16.6,12.63-34.33,13.54-53.25
		c0.44-9.23,0.48-18.48,1.43-27.68c0.64-6.18,2.03-12.22,3.08-18.34C433.78,266.36,437.7,245.61,427.1,235.02z M418.36,344.86
		c-0.6,2.62-1.41,5.16-2.36,7.65c0.5-1.75,0.97-3.51,1.42-5.29c0.99-3.9,1.82-7.81,2.54-11.73
		C419.58,338.64,419.07,341.77,418.36,344.86z"/>
</g>
<g id="Layer_1">
	<path class="st2" d="M99.09,601.94"/>
	<path d="M444.07,269.66c0.19-8.39,1.3-16.74,1.42-25.15c0.13-8.64,0.17-17.27-0.5-25.88c-3.2-5.78-10.75-8.11-16.77-9.33
		c-9.45-1.91-19.24-2.2-28.85-2.14c-18.61,0.12-37.73,1.29-56.11,4.31c-18.95,3.11-37.4,8.71-56.38,11.67
		c-1.9,0.3-3.06,1.29-3.63,2.55c-4.62,1.39-9.24,2.76-13.93,3.9c-11.37,2.78-22.82,4.75-34.07,8.13
		c-20.75,6.24-41.29,13.98-60.94,23.13c-18.93,8.82-36.93,19.62-52.85,33.21c-10.08,8.6-21.85,18.11-29.05,29.35
		c-3.17,4.95-5.43,11.39-2.54,17c1.03,2.01-2.51-4.9-0.81-3.66c-1.74,1.12,2.28,11.64,3.3,14.22c7.98,20.35,20.86,37.83,32.18,56.36
		c5.78,9.47,10.46,19.48,15.57,29.31c2.34,4.5,4.96,8.82,7.48,13.23c2.46,4.31,3.33,9.97,6.63,13.61c0.99,1.1,2.43,1.44,3.78,1.2
		c5.85,3.96,12.74,5.06,19.92,5.36c9.6,0.4,18.81,1.65,28.34,2.92c22.16,2.96,43.94,2.08,65.92-1.94
		c13.69-2.5,27.15-5.93,40.24-10.34c16.77-6.98,35.62-8.81,51.68-17.62c5.91-3.24,11.75-6.62,17.6-9.98
		c1.68-1.32,3.33-2.67,4.95-4.05c4.52-2.57,8.89-5.41,13.05-8.47c10.89-8,21.26-17.59,27.83-29.55c0.2-0.35,0.39-0.72,0.58-1.08
		c0.4-0.45,0.73-1.02,0.94-1.73c7.34-25.68,9.91-52.86,11.27-79.45c0.17-3.35,0.34-6.7,0.49-10.05c0.89-5.82,1.77-11.65,2.59-17.48
		C443.65,277.36,443.98,273.54,444.07,269.66z M429.95,266.88c-1.05,14.56-1.43,29.16-2.81,43.69c-1.43,15.02-4.87,29.55-8.17,44.24
		c-1.42,6.34-2.49,12.75-3.93,19.08c-0.07,0.32-0.15,0.65-0.22,0.98c-4.55,5.47-8.75,11.24-13.6,16.49
		c-6.06,6.55-12.54,12.71-19.36,18.47c-13.96,11.78-29.49,21.75-45.95,29.67c-17.12,8.24-35.59,13.86-54.06,18.14
		c-19.75,4.58-40.19,7.24-60.48,5.79c-11.36-0.81-22.53-3.44-33.87-4.21c-7.84-0.54-18.07,1.12-24.4-4.6
		c-0.39-0.35-0.79-0.63-1.2-0.85c-1.69-6.47-7.01-13.28-9.6-17.97c-5.52-10.01-10.1-20.52-15.89-30.38
		c-11.07-18.86-24.87-36.33-33.03-56.78c1.9,0.2,3.81,0.17,5.65-0.05c9.67-1.16,19.45-5.27,28.79-7.98
		c11.47-3.33,22.82-7.07,34.24-10.57c46.52-14.25,91.84-31.8,137.6-48.25c25.55-9.18,51.09-18.31,76.52-27.81
		c14.62-5.46,30.72-9.58,44.4-17.5c-0.19,7.2,0.04,14.48,0.12,21.66C430.42,261.05,430.16,263.96,429.95,266.88z M431.69,222.34
		c-12.14,9.41-27.91,13.4-42.16,18.52c-21,7.54-41.78,15.66-62.83,23.07c-42.5,14.97-84.49,31.41-127.24,45.68
		c-21.38,7.13-42.96,13.94-64.6,20.21c-4.56,1.32-9.19,2.44-13.69,3.95c-4.2,1.4-8.45,3.08-12.86,3.69
		c-4.33,0.6-9.88-0.14-8.05-5.14c1.96-5.32,7.06-9.9,11.02-13.74c4.04-3.92,8.25-7.67,12.37-11.5
		c14.46-13.44,31.17-24.12,48.79-32.93c19.91-9.95,41.01-17.9,62.24-24.55c11.84-3.7,23.81-6.04,35.87-8.81
		c11.77-2.7,23.1-7,34.9-9.63c0.29-0.07,0.56-0.15,0.82-0.25c19.87-4.05,39.44-9.15,59.8-10.88c17.44-1.48,35.28-2.73,52.74-0.93
		c3.92,0.4,7.89,1.04,11.63,2.28c0.46,0.15,0.92,0.33,1.37,0.51C431.76,222.05,431.72,222.19,431.69,222.34z"/>
	<path class="st3" d="M256.26,335.85c-0.11-0.62-1.05-4.54-2.39-3.17c-4.27,4.38-10.81,6.53-15.88,9.93
		c-6.22,4.17-12.19,8.71-18.36,12.94c-2.6,1.78-1.16,12.32,1.1,10.78c5.41-3.7,10.66-7.63,16.05-11.35
		c0.05,1.39,0.31,2.78,0.69,3.81c4.8,13.06,6.29,27.21,12.63,39.72c1.02,2.02,2.3-0.5,2.63-1.42c0.73-2.03,0.72-5.24-0.16-7.22
		c-5.35-12.12-7.32-25.2-11.69-37.64c4.89-2.96,11.08-5.02,14.56-9.55C256.71,341.02,256.6,337.76,256.26,335.85z"/>
	<path class="st3" d="M320.8,343.38c-3.27,4.22-2.05,12.31-6.49,15.72c-7.23,5.56-7.96-18.09-8.1-21.05
		c-0.04-0.82-1.15-8.1-3.11-4.82c-3.78,6.31-6.12,12.78-7.69,19.85c-1.67-4.09-3.38-8.16-5.02-12.25c-0.29-0.71-1.2-1.83-1.79-0.63
		c-3.1,6.33-4.13,13.11-4.46,20c-1.18-4.43-2.36-8.86-3.45-13.31c-0.4-1.63-1.2-3.58-2.83-2c-0.16,0.15-0.29,0.34-0.41,0.55
		c-0.33-0.76-0.78-0.91-1.35,0.36c-1.78,3.93-4.86,6.72-7.6,9.94c-0.15,0.17-0.29,0.35-0.44,0.53c-2.29-3.53-6.93-5.56-10.31-2.04
		c-1.61,1.67-2.58,4.36-2.9,7.12c-1.19,5.21-0.66,11.17,0.3,15.83c0.89,4.33,4.54,15.06,10.4,9.23c4.87-4.85,6.41-14.72,5.1-22.6
		c0.48-0.77,0.96-1.54,1.46-2.25c1.99-2.84,3.83-5.52,5.1-8.64c0.04,0.14,0.07,0.29,0.11,0.44c-0.22,1.72-0.06,3.66,0.27,4.81
		c0.85,3,1.13,6.15,1.86,9.17c0.56,2.32,1.31,6.51,3.59,8c0.32,1.03,0.66,2.05,1.01,3.07c0.67,1.93,1.6,1.72,2.64,0.42
		c1.23-1.53,0.95-5.3,0.52-7c-0.23-0.89-0.46-1.78-0.7-2.66c0.26-0.59,0.44-1.44,0.44-2.57c0.03-5.97,0.15-12.07,2.35-17.66
		c2.97,7.28,6.06,14.5,8.72,21.9c0.6,1.67,1.38,1.06,2.09,0c0.89-1.32,0.51-4.25,0-5.66c-0.51-1.42-1.06-2.83-1.6-4.24
		c0.91-4.61,2.14-8.78,3.97-12.85c0.22,3.8,0.62,7.59,1.6,11.29c0.97,3.69,3.75,11.8,8.79,11.61c7.24-0.28,9.09-16.9,10-22.03
		C323,348.16,322.81,340.77,320.8,343.38z M266.05,372.79c-2.86,7.2-6.68,3.11-7.57-1.77c2.64,0.85,6.18-0.49,8.31-2.27
		C266.82,370.15,266.52,371.6,266.05,372.79z"/>
	<path class="st3" d="M426.47,295.67c-0.21-0.12-0.41-0.23-0.62-0.35c-0.36-0.26-0.72-0.26-1.08,0c-2.63,1.87-3.72,4.48-4.34,7.32
		c-0.41-1.41-1.37-3.03-2.7-1.47c-0.03,0.03-0.04,0.07-0.06,0.1c-0.41,0.24-0.77,0.84-0.96,1.84c-0.86,4.5,0.44,9.18-0.42,13.61
		c-0.31,1.6-1.82,5.06-3.81,3.51c-1.46-1.14-2.04-4.44-2.51-6.07c-0.78-2.71-1.34-5.5-2.25-8.17c-0.72-2.09-2.13-1.79-2.92,0
		c-0.06,0.15-0.11,0.31-0.17,0.46c-0.52,0.23-0.98,1.04-1.07,2.46c-0.26,3.94-0.4,7.87-0.67,11.81c-0.14,2.01,0.35,8.06-2.82,6.67
		c-1.84-0.81-3.11-2.65-4.02-4.91c0.4-2.45,0.7-4.85,0.93-7.13c0.56-5.37,0.65-10.65,0.06-15.82c0.74-0.75,1.38-1.61,1.89-2.71
		c0.63-1.37,1.23-7.13-0.77-7.88c-1.23-0.46-1.78-0.21-2.86,0.52c-0.1,0.06-0.19,0.14-0.28,0.2c-0.55-1.83-1.21-3.64-1.98-5.44
		c-1.74-4.06-3.1,1.97-3.15,3.53c-0.07,2-0.15,4.01-0.21,6.03c-1.3,1.11-2.56,2.27-3.72,3.53c-1.6,1.74-1.68,4.64-1.44,6.87
		c0.06,0.58,1.1,5.47,2.54,3.9c0.79-0.86,1.63-1.67,2.49-2.45c0.08,4.15,0.32,8.3,0.89,12.39c0.24,1.71,0.53,3.42,0.89,5.12
		c-1.06,3.71-2.57,7.32-4.84,10.14c-3.07-4.64-5.59-10.42-4.12-15.92c0.5-1.87,0.81-6.15-0.74-7.64c-0.51-0.49-0.93-0.64-1.28-0.58
		c-0.59-1.71-1.69-2.91-2.37,0.08c-0.44,1.95-1.33,4.38-2.75,6.18c-0.31-1.52-0.7-2.99-1.2-4.37c-1.29-3.51-4-5.66-6.77-2.12
		c-2.62,3.35-3.22,8.55-2.51,12.62c0.64,3.68,3.54,7.05,6.98,6.7c-0.11,2.66-0.3,4.94-0.36,5.62c-0.19,2.17-0.2,6.38-2.07,7.95
		c-1.4,1.18-2.49,0.62-3.3-0.43c-0.04-1.1-0.07-2.21-0.07-3.31c-0.23,0.4-0.47,0.78-0.75,1.11c-0.84-1.51-1.44-3.13-1.9-4.82
		c-0.51-2.13-0.86-4.32-1.12-6.52c-0.24-2.3-0.39-4.62-0.61-6.87c-0.02-0.22-0.03-0.44-0.05-0.65c-0.02-0.34-0.08-0.81-0.17-1.3
		c-0.09-0.7-0.19-1.4-0.3-2.08c-0.3-1.69-1.26-3.53-2.83-2c-0.21,0.2-0.38,0.46-0.52,0.74c-0.08,0.02-0.16,0.02-0.25,0.06
		c-2.55,1.06-5.16,2.43-7.82,3.84c-1.64-7.92-3.33-15.83-4.99-23.73c-0.35-1.66-1.23-3.56-2.83-2c-1.54,1.5-1.13,5.82-0.74,7.64
		c1.43,6.79,2.72,13.62,4.14,20.41c-1.27,0.65-2.55,1.27-3.84,1.85c-1.61-1.24-3.42-2.29-5.48-3.08c-2.99-1.15-5.76-0.65-7.92,0.79
		c-1.24-6.92-2.48-13.86-5.64-20.11c-1.16-2.29-2.59,1.03-2.83,2c-0.61,2.44-0.4,5.39,0.74,7.64c2.39,4.71,2.83,10.08,3.79,15.2
		c0.02,0.13,0.05,0.25,0.08,0.38c-1.01,2.92-0.79,6.34,1.27,9.24c0.31,0.44,0.67,0.8,1.05,1.09c0.46,1.81,0.94,3.62,1.44,5.43
		c1.34,4.77,2.69,9.52,3.9,14.33c0.95,3.76,1.6,9,4.57,11.74c1.62,1.5,2-4.7,1.93-5.21c-1.25-8.52-4.02-16.9-6.46-25.25
		c3.13-0.42,6.55-1.95,9.01-3.07c5.47,4.5,7.84,11.72,9.95,18.39c0.39,1.22,0.97,1.59,1.57,1.41c0.13,0.24,0.25,0.49,0.38,0.73
		c1.97,3.41,2.72-6.01,2.56-6.91c-1.13-6.36-2.36-12.72-3.63-19.06c2.26-1.4,4.35-3.01,5.98-4.84c0.6,8.45,1.39,18.82,5.92,25.97
		c6.27,9.89,10.83-5.93,11.47-10.68c0.57-4.22,1.09-9.18,1.11-14.13c0.62-0.68,1.18-1.46,1.67-2.29c0.56,7.48,3.27,14.89,7.55,20.85
		c0.73,1.02,1.34,0.85,2.09,0c3.11-3.56,5.18-8.1,6.62-12.91c0.07,0.15,0.13,0.3,0.21,0.45c1.14,2.28,3.15,6.09,5.85,6.88
		c5.5,1.61,6.71-8.41,6.75-17.38c0.28,1,0.56,1.97,0.86,2.85c0.8,2.36,2.35,7.4,5.45,7.7c3.46,0.33,5.53-5.04,6.35-8.1
		c0.04,0.11,0.07,0.22,0.11,0.32c0.51,1.15,0,1.06,1.81,0.73c1.6-0.29,1.46-0.18,1.76-1.53c0.26-1.18,0.35-2.43,0.35-3.64
		c0-1.85-0.24-3.69-0.55-5.52c0.23-1.75,0.35-3.53,0.72-5.09c0.13-0.56,0.37-1.14,0.8-1.74c1.09-1.5,1.97-2.2,2.69-4.04
		C427.85,301.69,428.41,296.76,426.47,295.67z M393.87,310.12c-0.03-0.47-0.05-0.92-0.07-1.31c-0.12-2.17-0.15-4.35-0.15-6.52
		c0.24-0.18,0.48-0.36,0.71-0.53C394.46,304.57,394.2,307.53,393.87,310.12z"/>
	<path class="st3" d="M372.13,294.04c-0.07-1.46-0.26-3.39-1.42-4.45c-0.59-0.54-1.32-0.8-2.05-0.73c-0.27-0.5-0.97-1.65-1.68-0.92
		c-0.2,0.2-0.38,0.41-0.56,0.62c-0.1-0.02-0.2-0.03-0.31,0c-1.29,0.35-2.14,0.95-2.87,2.09c-0.99,1.56-1.07,3.81-0.99,5.57
		c0.07,1.42,0.24,3.68,1.48,4.65c0.87,0.68,1.23,1.12,2.39,1.4c0.27-0.04,0.49-0.15,0.68-0.31c1.69,0.81,3.58-0.92,4.38-2.58
		C372,297.68,372.23,295.92,372.13,294.04z"/>
	<path class="st3" d="M407.49,290.92c-0.02-1.19-0.1-2.64-0.58-3.77c-0.29-0.7-0.59-1.36-1.39-1.56c-1.84-0.47-3.2,0.88-3.79,2.53
		c-0.59,1.65-0.63,3.51-0.37,5.23c0.16,1.05,0.45,2.27,1.3,2.98c0.05,0.04,0.1,0.07,0.16,0.1c0.27,1.44,0.81,3.13,2.45,3.26
		c1.13,0.09,1.61-2.04,1.77-2.74C407.5,294.97,407.52,292.95,407.49,290.92z"/>
</g>
</svg>
