<?xml version="1.0" encoding="utf-8"?>
<!-- Generator: Adobe Adobe Illustrator 24.2.0, SVG Export Plug-In . SVG Version: 6.00 Build 0)  -->
<svg version="1.1" xmlns="http://www.w3.org/2000/svg" xmlns:xlink="http://www.w3.org/1999/xlink" x="0px" y="0px"
	 viewBox="0 0 612 792" style="enable-background:new 0 0 612 792;" xml:space="preserve">
<style type="text/css">
	.st0{fill:#F7EBC8;stroke:#EBEBEB;stroke-miterlimit:10;}
	.st1{fill:#EC3A2C;stroke:#EBEBEB;stroke-miterlimit:10;}
	.st2{fill:#EBEBEB;}
	.st3{fill:#EB3B2B;}
	.st4{fill:#F7D92A;}
</style>
<g id="Layer_3">
	<path class="st0" d="M254.97,370.72c-0.79,0-0.8,3.02,0,3.02C255.77,373.74,255.78,370.72,254.97,370.72z"/>
	<g>
		<path class="st0" d="M181.86,368.49c0.17-0.58,0.1-0.36,0.04-0.15c-0.01,0.03-0.02,0.06-0.03,0.09
			C181.87,368.45,181.86,368.47,181.86,368.49z"/>
		<g>
			<path class="st0" d="M345.16,349.97c4.54-5.83,13.05-14.94,8.25-20.73c-1.02-1.23-2.7-2.16-4.69-2.82
				c-0.23,0.04-0.46,0.07-0.68,0.09c-2.35,0.75-4.7,1.26-7.2,1.9c-3.27,0.84-6.25,2.11-9.61,2.7c-3.79,0.66-7.62,1.83-11.22,3.19
				c-2.86,1.08-6.57,1.8-9.12,3.5c-0.73,0.48-1.38,0.06-1.9-0.88c-1.01,0.32-2.01,0.61-2.99,0.82c-4.35,0.92-3.43,1.7-7.54,3.44
				c-1.85,0.78-4.09,1.24-6.43,1.64c-0.07,0.22-0.12,0.44-0.2,0.64c-0.2,0.51-0.97,2.21-1.88,2.05c-1.02-0.19-2.31,0.64-3.25,0.92
				c-1.49,0.45-2.96,0.97-4.5,1.19c-0.05,0.01-0.09,0-0.14,0c0.15,0.51,0.3,1.03,0.45,1.54c0.21-0.07,0.41-0.15,0.62-0.22
				c-0.39,0.28-1.11,0.35-1.58,0.46c-0.48,0.11-0.94,0.25-1.41,0.37c-0.77,0.2-1.41,0.4-2.12,0.18c-0.41,0.05-0.82-0.43-1.13-0.92
				c-0.07,0.13-0.14,0.25-0.2,0.38c-0.15,0.31-0.41,0.54-0.74,0.64c-1.91,0.54-3.82,1.07-5.72,1.55c-1.35,0.34-2.53,0.91-3.56,1.63
				c-0.14,0.1-0.29,0.16-0.45,0.19c-1.26,0.22-2.53,0.44-3.8,0.62c-5.49,0.77-10.65,1.55-15.84,3.27c-0.01,0-0.03,0-0.04,0
				c0,0,0,0.01,0,0.01c-0.2,0.07-0.41,0.15-0.61,0.22c0.36-1.88,0.55-3.82,0.63-5.74c0.02-0.41,0.25-0.76,0.61-0.96
				c1.2-0.67,2.34-1.58,3.39-2.72c8.5-9.28,14.54-20.45,22.88-29.85c0.47-0.53,0.96-1.05,1.44-1.58c0.12-0.27,0.25-0.54,0.41-0.79
				c0.32-0.51,0.72-0.96,1.13-1.4c0.51-0.57,0.83-0.86,1.14-1.2c0.77-0.86,1.63-1.63,2.44-2.44c0.2-0.2,0.4-0.27,0.61-0.28
				c1.48-1.57,2.95-3.14,4.38-4.75c0.35-0.39,0.7-0.79,1.06-1.18c0.23-0.25,0.56-0.38,0.91-0.38c2.06,0.03,4.16-0.54,6.08-1.85
				c1.07-0.73,2.09-1.49,3.1-2.3c9.57-7.64,7.21-25.84-6.07-27.33c-6.41-0.72-12.8,0.5-19.21,0.53c-5.67,0.03-11.65,0.13-16.67,2.86
				c-0.07,0.04-0.15,0.07-0.24,0.09c-1.04,0.25-2.07,0.66-3.06,1.22c-0.4,0.23-0.89,0.2-1.27-0.05c-2.36-1.56-5.35-2.12-8.86-1.04
				c-3.72,1.15-7.13,2.8-10.38,4.73c-0.11,0.06-0.22,0.11-0.34,0.13c-0.67,0.13-1.36,0.33-2.06,0.61
				c-7.38,2.97-13.24,7.95-19.46,12.74c-6.22,4.79-11.89,10-15.46,17.11c-0.39,0.77-0.71,1.61-0.96,2.5
				c-0.11,0.38-0.39,0.67-0.76,0.8c-2.29,0.84-4.4,2.66-6.09,4.12c-2.27,1.98-4.37,4.15-6.38,6.4c-0.04,0.04-0.08,0.08-0.12,0.11
				c-0.95,0.78-1.89,1.59-2.8,2.43c-0.2,0.19-0.46,0.29-0.74,0.3c-0.73,0.03-1.5,0.11-2.3,0.26c-12.48,2.36-18.96,21.04-22.45,31.52
				c-1.52,4.57-2.68,9.42-3.47,14.37c-0.01,0.06-0.03,0.12-0.05,0.18c-0.25,0.73-0.5,1.46-0.74,2.19
				c-3.09,9.43-4.57,20.07-1.9,29.78c2.56,9.33,8.32,16.68,15.5,22.94c5.36,4.67,11.48,8.29,17.49,12.03
				c3.64,2.26,6.71,5.66,10.86,7.04c5.7,1.9,11.2,0.63,16.76-1.13c3.95-1.25,7.86-2.61,11.76-4.01c0.55-0.2,1.17,0.04,1.43,0.57
				c1.43,2.99,3.77,5.43,7.12,6.85c9.22,3.89,20.96-3.76,24.15-12.53c0.73-2,1.16-4.18,1.28-6.38c0.05,0.02,0.1,0.04,0.15,0.06
				c17.57,6.42,31.58-3.76,43.66-15.85c0.06-0.04,0.12-0.07,0.17-0.11c3.14-2.17,5.88-4.79,8.42-7.62c0.05-0.06,0.11-0.11,0.17-0.15
				c6.99-5.02,13.34-10.95,19.12-17.29c2.1-2.3,3.14-5.32,3.34-8.47c0.01-0.22,0.09-0.42,0.22-0.6c1.33-1.81,2.13-3.83,2.49-5.92
				c0.04-0.23,0.15-0.45,0.31-0.62c3.48-3.48,6.83-7.09,10.04-10.84c2.38-2.78,3.53-6.54,3.53-10.3c0-0.33,0.14-0.64,0.38-0.87
				c0.35-0.32,0.69-0.67,0.99-1.05C343.99,351.93,347.39,347.11,345.16,349.97z M164.9,340.81c-0.09,0.16-0.17,0.32-0.25,0.48
				C165.01,339,165.47,339.74,164.9,340.81z"/>
		</g>
	</g>
	<path class="st0" d="M369.2,286.24c-0.55-1.03-1.21-2.05-1.97-2.97c-0.24-0.29-0.32-0.67-0.23-1.04
		c1.53-5.75-0.38-12.87-5.21-16.27c-1.64-1.16-3.33-1.72-4.99-1.82c-0.21-0.01-0.41-0.08-0.58-0.2c-2.95-2.02-6.79-2.66-9.87-0.03
		c-7.55,6.47-15.85,11.85-23.04,18.82c-5.64,5.47-12.16,13.07-17.37,17.56c-0.05,0.04-0.1,0.08-0.16,0.11
		c-2.11,1.2-3.91,3.11-5.07,5.45c-0.11,0.24-0.23,0.46-0.38,0.68c-0.5,0.84-0.85,1.76-1.1,2.73c-0.06,0.23-0.18,0.43-0.36,0.59
		c-3.13,2.68-5.78,5.78-8.72,8.66c-1.17,1.15-2.42,2.12-3.78,3c-0.16,1.84-0.67,3.66-1.91,4.76c-2.49,2.23-4.57,4.89-7.13,7.06
		c-1.17,1-2.22,2.05-3.33,3.12c-0.45,0.44-1.22,1.36-2.01,1.94c0.16,0.88,0.48,1.72,0.94,2.45c0.6,0.95,1.51,1.91,2.64,2.22
		c0.03,0.01,0.07,0.01,0.1,0.02c0.03-0.64,0.09-1.28,0.19-1.9c0.15-0.96,0.33-2.24,0.98-3.02c0.01-0.01,0.01-0.01,0.02-0.02
		c-0.01,0.03-0.02,0.05-0.03,0.08c0.26-0.42,0.56-0.81,0.93-1.14c0.36-0.32,0.81-0.46,1.26-0.59c0.69-0.28,1.4-0.54,2.1-0.79
		c0.22-0.08,0.44-0.18,0.67-0.26c0.02-0.01,0.05-0.02,0.07-0.03c1.21-1.15,2.75-1.78,4.27-2.47c1.11-0.51,2.48-1.57,3.77-1.4
		c1.46,0.2,2.11,1.91,2.4,3.66c1.34-0.94,2.61-1.94,3.75-2.96c2.35-2.1,4.42-4.5,6.63-6.73c0.43-0.43,1.13-0.45,1.59-0.04
		c1.08,0.96,2.29,1.68,3.59,2.08c0.26-1.47,0.77-2.66,1.57-3.2c2.73-1.82,6.61-2.57,9.67-3.73c1.37-0.52,2.78-1.01,4.22-1.48
		c0.95-0.93,1.9-1.88,2.84-2.85c0.41-0.42,1.08-0.48,1.54-0.11c0.6,0.47,1.25,0.88,1.92,1.23c4.49-1.01,9.13-2.59,13.79-3.47
		c0.37-0.36,0.74-0.74,1.09-1.13c0.56-0.07,0.92-0.12,1.49-0.19c0.38,0.26,0.77,0.49,1.17,0.7c1.22-1,2.86-1.54,4.49-1.98
		c0.41-0.72,0.97-1.19,1.7-1.29c3.98-1.23,8.13-3,12.26-4.04c2.36-2.49,4.09-5.66,4.71-9C370.99,293.57,370.89,289.41,369.2,286.24z
		"/>
	<path class="st1" d="M231.83,374.07c-1.26-2.55-3.75-4.5-6.68-4.48c-2.94,0.02-5.45,1.87-6.76,4.43
		c-1.73,3.39-1.34,7.91,0.97,10.93c1.83,2.39,4.88,3.37,7.73,2.37c0.64-0.23,1.21-0.55,1.75-0.92c0.19-0.12,0.38-0.25,0.56-0.39
		c0.02-0.02,0.05-0.03,0.07-0.05c0.94-0.75,1.72-1.73,2.23-2.78c-0.28,0.44-0.56,0.88-0.84,1.32
		C233,381.47,233.51,377.46,231.83,374.07z"/>
	<path class="st1" d="M338.84,284.83c-3.14-0.51-5.75,1.16-7.27,3.66c-0.6,0.54-1.08,1.2-1.39,1.95c-1.36,3.34-2.04,7.08-0.34,10.46
		c1.45,2.88,4.26,4.45,7.34,3.93c0.01,0,0.02,0,0.03,0c2.62,0.73,5.21-0.26,7-2.29c1.68-1.91,2.43-4.56,2.5-7.06
		C346.85,290.62,343.85,285.65,338.84,284.83z"/>
	<path class="st1" d="M320.14,357.64c-0.85-1.73-2.22-3.16-4.13-3.93c-2.35-0.95-4.84-0.15-6.83,1.25c-2.36,0.83-4.51,2.27-5.9,3.95
		c-3.85,4.66-2.63,11.9,2.21,14.59c1.2,0.94,2.68,1.54,4.37,1.62c2.97,0.15,5.87-1.3,7.47-3.7c1.42-0.99,2.6-2.33,3.38-3.9
		C322.19,364.48,322.04,360.48,320.14,357.64z"/>
	<path class="st1" d="M280.2,357.03c-0.08-3.12-1.79-6.17-5.05-7.32c-2.22-0.78-4.74-0.85-6.85,0.24c-0.54,0.28-1.03,0.63-1.48,1.01
		c-0.69,0.34-1.35,0.75-1.94,1.26c-3.61,3.08-3.89,9.02,0,12.05c0.92,0.72,1.9,1.2,2.89,1.45c0.41,0.26,0.85,0.48,1.32,0.65
		c2.95,1.07,6.05-0.06,8.47-1.82C279.89,362.87,280.69,359.79,280.2,357.03z"/>
	<path class="st1" d="M279.47,389.93c-0.94-1.94-2.41-3.4-4.12-4.2c-0.43-0.33-0.9-0.59-1.43-0.73c-1.39-0.38-2.54-0.18-3.76,0.38
		c-0.64,0.2-1.27,0.47-1.9,0.86c-0.7,0.43-1.29,0.95-1.81,1.52c-1.76,1.81-2.96,4.31-3.61,6.68c-1.26,4.6-0.05,10.32,4.46,12.64
		c3.66,1.88,7.83,0.28,10.31-2.77C280.63,400.58,281.6,394.31,279.47,389.93z"/>
	<path class="st1" d="M216.03,409.45c-0.07-0.14-0.15-0.28-0.23-0.42c-0.15-2.43-1.02-4.92-2.69-6.66
		c-0.08-0.11-0.14-0.22-0.22-0.33c-1.87-2.42-5.32-3.59-8.19-2.35c-2.05,0.89-3.65,2.52-4.71,4.48c-3.45,3.37-4.06,9.85-1.17,13.69
		c0.51,1.91,1.92,3.98,3.89,4.5c1.93,0.51,3.9,0.79,5.82,0.11c0.41-0.15,0.79-0.34,1.16-0.56c2.11,0.15,4.17-0.66,5.58-2.36
		C217.59,416.75,217.61,412.59,216.03,409.45z"/>
	<path class="st1" d="M184.31,382.49c-0.19-0.81-0.49-1.59-0.89-2.31c-0.31-0.57-0.68-1.09-1.09-1.56
		c-0.07-0.09-0.15-0.17-0.23-0.25c-0.05-0.05-0.1-0.11-0.16-0.16c-0.28-0.29-0.58-0.57-0.9-0.82c-0.26-0.25-0.53-0.49-0.81-0.71
		c-1.73-1.36-4.17-2.01-6.31-1.25c-2.24,0.79-3.75,2.46-4.89,4.48c-0.37,0.66-0.67,1.37-0.9,2.11c-0.58,1.43-0.91,2.95-0.92,4.38
		c-0.02,3.36,1.75,7.18,5.18,8.26c0.64,0.2,1.3,0.32,1.98,0.37c3.11,0.42,6.57-0.99,8.42-3.58
		C184.63,388.84,185.1,385.47,184.31,382.49z"/>
	<path class="st1" d="M207.13,338.39c-1.43-2.75-4.03-4.91-7.21-5.12c-0.18-0.01-0.36,0-0.54,0.01c-3.07-0.72-6.44,0.33-8.48,2.77
		c-0.94,1.13-1.57,2.43-1.94,3.8c-1.57,2.68-1.74,6.2-0.43,9.24c1.4,3.28,4.83,6.06,8.53,5.9c2.38-0.1,4.33-1.26,5.81-2.92
		c0.09-0.05,0.18-0.09,0.26-0.14C207.55,349.3,209.53,343.02,207.13,338.39z"/>
	<g>
		<path class="st1" d="M243.13,324.33c0.14-0.28,0.27-0.56,0.39-0.86c1.28-3.09,1.52-6.6,0.16-9.64c-1.58-3.53-4.91-4.97-8.25-4.57
			c-0.98-0.02-1.98,0.12-2.96,0.45c-1.65-1.04-3.68-1.36-5.31,0.16c-2.46,2.3-4.42,4.79-5.08,8.2c-0.68,3.47,0.08,7.11,2.19,9.96
			c2.67,3.62,7.72,5.47,11.98,3.66c2.34-1,4.24-2.87,5.56-5.15C242.3,325.85,242.75,325.11,243.13,324.33z"/>
		<path class="st1" d="M232.57,318.35c-0.02,0.01-0.04,0.01-0.06,0.02c-0.01-0.01-0.02-0.01-0.03-0.02c0.01,0,0.02,0.02,0.02,0.02
			c-0.01,0-0.01,0-0.02,0.01c0.02,0.01,0.03,0.02,0.05,0.02c0.01,0.01,0.01,0.01,0.02,0.01c0,0,0,0,0,0c0,0,0,0,0.01,0c0,0,0,0,0,0
			c0,0,0,0,0,0c0.02-0.01,0.03-0.01,0.05-0.02C232.6,318.37,232.59,318.36,232.57,318.35z"/>
	</g>
	<g>
		<path class="st1" d="M270.71,321.55c0.7,0.49,1.58,0.8,2.48,0.9c0.22-0.22,0.45-0.43,0.67-0.65c0.02-0.26,0.04-0.53,0.07-0.79
			c0.06-1.82,0.42-3.65,1.32-5.11c0.32-0.51,0.72-0.96,1.13-1.4c0.51-0.57,0.83-0.86,1.14-1.2c0.77-0.86,1.63-1.63,2.44-2.44
			c0.74-0.74,1.62,0.15,2.05,0.7c0.31,0.4,0.52,0.87,0.69,1.37c0.23-0.34,0.45-0.69,0.66-1.04c2.71-4.52-2.03-12.65-7.38-9
			c-0.23,0.15-0.45,0.33-0.66,0.51c-0.23,0.14-0.64,0.42-0.7,0.46c-0.28,0.17-0.53,0.35-0.78,0.55c-0.03,0.04-0.31,0.3-0.64,0.61
			c-1.4,0.48-2.62,1.6-3.42,3.12c-0.18,0.34-0.34,0.68-0.48,1.03c-0.18,0.29-0.37,0.57-0.54,0.86c-0.44,0.87-0.77,1.81-0.97,2.76
			c-0.32,1.47-0.2,3.27,0.38,4.86C268.54,319.2,269.45,320.66,270.71,321.55z"/>
		<path class="st1" d="M273.68,304.5c0.05-0.04,0.09-0.06,0.14-0.1C273.83,304.39,273.8,304.41,273.68,304.5z"/>
	</g>
	<path class="st1" d="M345.05,330.98c-0.5-1.3-1.59-2.34-2.86-2.91c-0.45,0.11-0.89,0.22-1.35,0.34c-2.23,0.57-4.33,1.34-6.51,1.96
		c-0.18,0.12-0.36,0.24-0.53,0.37c-0.12-0.05-0.26-0.08-0.38-0.12c-0.72,0.19-1.44,0.35-2.19,0.48c-1.08,0.19-2.17,0.43-3.25,0.69
		c-1.17,0.93-2.02,2.34-2.42,3.91c-0.79,3.14-0.08,5.94,1.72,8.56c0.57,0.82,1.56,1.5,2.64,1.84c0.84,0.43,1.81,0.67,2.92,0.65
		c1.44-0.03,2.84-0.53,4.04-1.35c0.3-0.09,0.59-0.2,0.88-0.34c0.76-0.09,1.43-0.34,2.05-0.68c0.19-0.04,0.38-0.08,0.57-0.14
		c2.14-0.64,3.31-2.35,3.98-4.29c0.02-0.04,0.04-0.08,0.06-0.12c1.45-1.82,2.06-4.4,1.4-6.63
		C345.61,332.46,345.33,331.72,345.05,330.98z"/>
	<path class="st1" d="M311.78,304.28c-1.39-2.67-4.04-4.41-7.1-3.44c-1.14,0.36-2.05,0.98-2.75,1.75c-1.21,0.65-2.29,1.61-3.16,2.6
		c-2.39,2.71-3.44,7.04-1.73,10.37c0.65,1.26,1.59,2.36,2.77,3.06c0.94,0.74,2.11,1.2,3.53,1.19c3.43-0.04,6.32-2.9,7.69-5.83
		c0.01-0.03,0.02-0.05,0.03-0.08c0.57-0.91,1-1.92,1.26-2.93C312.85,308.84,312.81,306.27,311.78,304.28z"/>
	<path class="st1" d="M371.42,302.16c-0.03-0.91-0.26-1.78-0.68-2.6c-0.48-1.01-1.16-1.84-2.05-2.51c-0.07-0.05-0.16-0.11-0.25-0.17
		l-0.24-0.23c-0.02-0.02-0.04-0.04-0.07-0.05c-0.13-0.09-0.28-0.15-0.42-0.22c-0.56-0.57-1.23-1.03-2.01-1.24
		c-0.51-0.08-1.02-0.17-1.52-0.25c-1.06,0.01-2.03,0.33-2.89,0.95c-0.05,0.04-0.09,0.07-0.14,0.11c-0.38,0.32-0.88,0.78-1.22,1.15
		c-0.03,0.04-0.07,0.07-0.1,0.11c-0.01,0.02-0.03,0.04-0.04,0.06l-0.9,1.41c-0.02,0.04-0.04,0.07-0.06,0.11
		c-0.16,0.34-0.51,1.35-0.6,1.72c-0.01,0.04-0.02,0.07-0.03,0.11c-0.08,0.36-0.21,1.54-0.21,1.91c0,0.04,0,0.07,0,0.11
		c0,0.36,0.14,1.56,0.21,1.91c0.01,0.03,0.02,0.07,0.03,0.1c0.08,0.34,0.45,1.41,0.6,1.72c0.02,0.03,0.04,0.06,0.05,0.09
		c0.15,0.29,0.61,1.03,0.86,1.36c2.9-1.03,5.83-1.99,8.74-2.43c0.84-0.13,1.45,0.69,1.84,1.95c0.47-0.74,0.8-1.54,1-2.41
		C371.56,304.01,371.6,303.09,371.42,302.16z"/>
	<path class="st2" d="M472.94,272.32c0-1.9-0.89-4.36-2.47-5.8c0.18-2.94,0.01-5.85-0.71-8.61c-0.87-3.36-2.66-6.25-4.65-9.05
		c-1.52-2.13-3.29-3.8-3.18-6.53c0.13-3.46-1.83-5.73-4.17-6.44c1.83-6.65-6.62-13.51-10.36-5.8c-4.56,9.42-10.24,18.41-14.47,27.97
		c-3.8,8.6-5.65,17.79-9.66,26.35c-4.28,9.12-8.96,18.06-13.05,27.27c-4.3,9.7-8.49,19.37-13.38,28.8
		c-19.56,37.71-40.92,74.63-62.61,111.15c-6.12,10.29-12.27,20.57-18.6,30.73c-3.34,5.36-6.74,10.8-9.36,16.55
		c-2.67-0.89-5.51-1.46-7.71-2.06c-9.26-2.54-18.74-4.09-28.13-6.02c-19.15-3.93-37.79-10.02-56.87-14.26
		c-19.01-4.22-38.37-6.26-57.68-8.52c-9.8-1.15-19.6-2.34-29.34-3.92c-9.72-1.57-19.27-3.94-28.96-5.62
		c-10.64-1.84-21.41-3.2-31.83-6.09c-6.33-1.75-16.88-7.02-22.86-2.14c-3.01,2.46-2.41,9.83,1.74,9.92
		c1.82,0.68,3.88,0.99,5.84,1.41c-2.27,2.52-3.24,7.16-0.75,10.28c6.82,8.55,12.33,17.99,18.81,26.78c1.25,1.69,2.21,2.94,2.77,4.91
		c0.64,2.23,0.86,4.03,2.39,5.93c2.37,2.94,5.7,3.99,9.32,4.48c6.63,0.91,13.28-0.5,19.91,0.07c11.25,0.97,22.43,4.56,33.33,7.32
		c44.09,11.17,88.76,20.34,133.91,26.03c8.11,1.02,17.1,5.67,25.32,3.39c1.2,1.37,2.79,2.17,4.51,1.75c0.46,0.14,0.96,0.2,1.49,0.18
		c0.39-0.02,0.78-0.05,1.15-0.1c0.69,0.37,1.46,0.6,2.28,0.61c1.38,0.02,2.49-0.5,3.36-1.32c1.35,2.21,3.79,3.27,7.03,1.37
		c1.46-0.86,2.52-2.08,3.31-3.47c2.85-3.38,5.13-7.19,7.35-11.06c1.17-0.42,2.32-1.37,3.32-3.02c2.36-3.92,4.13-8.11,5.79-12.36
		c1.66-3.03,3.17-6.11,4.55-9.26c0.99-1.94,2-3.87,3.02-5.8c1.19-0.19,2.32-0.81,3.16-1.91c4.41-5.69,8.71-11.62,12.1-18
		c6.74-10.1,13.33-20.3,19.26-30.9c1.16-2.07,2.28-4.16,3.36-6.27c8.17-9.25,13.37-20.61,18.33-31.94
		c6.59-15.06,15.23-28.8,22.71-43.4c8.55-16.69,17.45-33.2,25.88-49.94c3.49-6.93,7.06-13.9,10.39-20.98
		c0.87-0.27,1.74-0.8,2.55-1.67c2.22-2.38,3.71-5.08,4.82-8.14c0.44-1.21,0.7-2.5,0.7-3.77c0.75-1.29,1.54-2.55,2.35-3.79
		c0.92-1.22,1.75-2.49,2.52-3.86c0.79-1.4,0.9-3.06,0.55-4.65C472.22,277.1,472.94,274.98,472.94,272.32z M70.82,480.01
		c-0.66-0.97-1.32-1.93-1.98-2.9c0.73,0.11,1.45,0.22,2.18,0.35C70.88,478.33,70.82,479.18,70.82,480.01z M95.46,484.54
		c-0.8-0.46-1.58-0.97-2.36-1.52c2.54,0.73,5.07,1.43,7.59,2.08C98.95,484.92,97.2,484.74,95.46,484.54z M273.93,509.71
		c-0.02-0.01-0.04-0.01-0.06-0.02c-2.46-0.75-4.95-1.23-7.47-1.55c-3.11-0.7-6.22-1.45-9.32-2.29
		c-15.94-4.31-31.53-9.78-47.47-14.08c-13.47-3.64-27.2-6.12-40.99-8.32c10.92,1.25,21.83,2.62,32.62,4.68
		c18.29,3.48,36.14,8.83,54.16,13.42c9.22,2.35,18.59,3.96,27.89,5.9c-0.14,1.34,0.08,2.7,0.72,3.86c0.04,0.07,0.08,0.12,0.11,0.19
		c-1.29-0.24-2.59-0.46-3.88-0.67C278.13,510.48,276.03,510.1,273.93,509.71z M312,519.87c-0.11,0.06-0.21,0.13-0.32,0.2
		c-0.64-0.07-1.31,0.01-1.97,0.21c0-0.02,0-0.03,0-0.05c0.04-0.34,0.06-0.68,0.06-1.02c0-0.2-0.02-0.4-0.03-0.6
		c1.7-0.44,3.19-1.91,3.78-4.73c0.46-2.2,1.13-4.33,1.95-6.42c0.08,0.7,0.26,1.4,0.53,2.06C314.32,512.83,312.93,516.27,312,519.87z
		 M388.8,383.65c-1.85,3.55-3.6,7.15-5.16,10.8c-0.28,0.65-0.46,1.35-0.58,2.06c-0.72-0.63-1.54-1.09-2.4-1.31
		c2.96-5.27,5.91-10.54,8.83-15.83c0.06,0.62,0.17,1.26,0.35,1.91C389.49,382.07,389.15,382.86,388.8,383.65z M447.53,259.67
		c-1.93,2.41-3.76,4.88-5.52,7.4c1.8-4.77,4.15-9.39,6.65-13.96C448.36,255.33,448.03,257.53,447.53,259.67z M458.6,268.45
		c-0.51,0.36-1.02,0.73-1.49,1.14c0-0.01,0-0.01,0-0.02c0.65-1.38,1.24-2.8,1.76-4.27C458.87,266.33,458.77,267.38,458.6,268.45z"/>
	<path class="st2" d="M237.64,312.68c-0.04,0-0.07,0.01-0.11,0.01c-0.04,0-0.07-0.01-0.11-0.01c-3.26,0-3.26,6.03,0,6.03
		c0.04,0,0.07-0.01,0.11-0.01c0.04,0,0.07,0.01,0.11,0.01C240.9,318.71,240.9,312.68,237.64,312.68z"/>
	<path class="st3" d="M246.07,319.8c-0.11-2.76-1.07-5.6-3.36-7.29c-0.93-1.06-2.13-1.92-3.64-2.43c-0.34-0.11-0.67-0.19-0.99-0.26
		c-1.11-0.51-2.3-0.81-3.53-0.78c-1.34,0.03-2.47,0.43-3.41,1.08c-0.3,0.15-0.59,0.31-0.87,0.5c-1.62,1.08-2.7,2.65-3.31,4.4
		c-1.5,2.36-2.02,5.48-1.36,8.26c1.1,4.65,4.98,8.38,9.92,8.29c2.66-0.04,4.87-1.19,6.43-2.94
		C244.66,326.75,246.21,323.26,246.07,319.8z"/>
	<path class="st3" d="M234.05,379.81c0.08-1.23-0.06-2.44-0.43-3.53c-0.96-2.79-3.33-4.96-6.41-4.73c-0.69,0.05-1.34,0.22-1.96,0.46
		c-0.94,0-1.88,0.19-2.76,0.65c-0.21,0.11-0.42,0.23-0.62,0.35c-1.02,0.42-1.96,1.08-2.75,1.94c-2.39,2.62-2.87,6.9-1.24,10.04
		c1.76,3.4,5.58,4.91,8.97,3.14c1.11-0.02,2.1-0.3,2.97-0.79c0.54-0.26,1.05-0.58,1.5-0.99c1.27-1.15,2.29-2.41,2.62-4.16
		C234.09,381.37,234.11,380.58,234.05,379.81z"/>
	<path class="st3" d="M204.88,336.59c-0.09-0.03-0.18-0.04-0.27-0.07c-0.06-0.04-0.11-0.09-0.16-0.13c-1.9-1.31-4.24-1.22-6.14,0
		c-0.62,0.24-1.2,0.57-1.72,1.01c-0.07,0.06-0.12,0.12-0.19,0.17c-0.25,0.19-0.5,0.41-0.75,0.65c-2.52,2.44-3.34,6.36-1.76,9.56
		c0.18,0.36,0.39,0.71,0.63,1.04c0.52,0.87,1.19,1.66,2.01,2.36c2.24,1.92,5.25,1.75,7.45,0.15c2.66-1.05,4.13-3.52,4.89-6.17
		C209.78,342.04,208.14,337.64,204.88,336.59z"/>
	<path class="st3" d="M185.77,382.81c-0.14-2.1-0.99-4.14-2.54-5.59c-1.71-1.61-4.51-2.28-6.75-1.39c-0.76,0.3-1.42,0.72-2,1.22
		c-0.16,0.07-0.31,0.14-0.46,0.21c-1.23,0.22-2.68,1.1-3.26,1.99c-1.31,2-2.13,4.15-2.07,6.41c-0.06,0.29-0.11,0.58-0.15,0.87
		c-1.06,4.31,1.03,10.04,6.09,10.3c2.44,0.12,4.38-0.99,5.74-2.72c2.02-1.33,3.39-3.41,4.1-5.74c0.21-0.32,0.41-0.63,0.59-0.96
		C185.86,385.99,186.04,384.37,185.77,382.81z"/>
	<path class="st3" d="M344.54,292.16c-0.1-0.11-0.19-0.22-0.3-0.32c-0.09-1.16-0.38-2.29-0.87-3.31c-0.01-0.02-0.03-0.05-0.04-0.07
		c-0.7-2.59-2.54-5.49-5.41-5.06c-0.69,0.11-1.33,0.26-1.92,0.47c-4.01,0.7-5.91,5.3-5.54,9.3c0.01,0.22,0.02,0.43,0.04,0.64
		c-0.06,2.83,0.97,5.65,3.32,7.12c0.08,0.2,0.14,0.42,0.23,0.61c1.18,2.6,4.29,4.94,7.26,3.78c0.1-0.04,0.2-0.1,0.3-0.14
		c0.51-0.16,1.02-0.4,1.52-0.77c2.37-1.78,3.26-4.16,3.37-7.06C346.58,295.47,345.84,293.54,344.54,292.16z"/>
	<path class="st3" d="M284.98,305.67c-0.36-1.33-1.39-2.3-2.82-1.95c-0.88,0.21-1.52,0.73-1.95,1.41c-2.12,1-3.98,2.54-5.67,4.12
		c-1.05,0.98-2.15,1.95-2.93,3.16c-0.62,0.97-1.08,1.99-1.47,3.05c-1.08,0.45-1.52,1.92-1.4,2.97c0.14,1.27,0.94,2.28,2.25,2.42
		c0.25,0.03,0.49,0,0.74-0.01c1.21-0.08,1.88-0.97,2.21-2.05c0.07-0.24,0.14-0.53,0.24-0.78c0.01-0.02,0.03-0.06,0.06-0.14
		c0.06-0.16,0.12-0.32,0.19-0.48c0.12-0.29,0.25-0.57,0.39-0.85c0.08-0.16,0.18-0.31,0.25-0.47c0,0,0,0,0-0.01
		c0.36-0.49,0.74-0.93,1.17-1.36c0.19-0.19,0.37-0.37,0.56-0.55c0.08-0.08,0.16-0.15,0.24-0.23c0.03-0.03,0.06-0.05,0.1-0.1
		c0.88-0.81,1.79-1.58,2.76-2.28c0.45-0.33,0.92-0.64,1.4-0.92c0.12-0.07,0.24-0.13,0.36-0.2c0.01,0,0.01,0,0.02-0.01
		c0.25-0.11,0.49-0.22,0.75-0.31c0.58-0.22,0.99-0.62,1.26-1.11C284.81,308.47,285.28,306.77,284.98,305.67z"/>
</g>
<g id="Layer_2">
	<path class="st4" d="M381.49,294.92c-0.05-0.14-0.12-0.26-0.18-0.39c-0.01-0.07-0.02-0.15-0.04-0.22
		c-0.03-0.12-0.06-0.23-0.09-0.34c-0.05-1.49-0.47-2.96-1.22-3.92c-0.28-0.36-0.62-0.64-0.98-0.84c-0.08-0.2-0.18-0.39-0.28-0.57
		c-0.19-0.33-0.44-0.63-0.72-0.9c-0.73-3.89-1.91-7.7-3.66-11.25c-0.1-0.21-0.23-0.34-0.38-0.4c-0.58-1.74-1.34-3.44-2.46-4.88
		c-0.83-2.53-1.74-5.06-2.87-7.47c0.08-0.35,0.14-0.7,0.18-1.05c0.18-1.71,0.15-4.13-1.2-5.42c-0.25-0.24-0.57-0.43-0.92-0.58
		c-0.16-0.19-0.35-0.34-0.59-0.43c-0.02-0.01-0.04-0.01-0.06-0.02c-0.14-0.28-0.3-0.54-0.48-0.78c-0.22-0.29-0.6-0.68-1-0.35
		c-0.43,0.35-0.84,0.85-1.26,1.39c-1.05,0.24-1.99,0.72-2.52,1.42c-0.44,0.59-0.74,1.3-0.93,2.07c-0.09,0.04-0.19,0.07-0.28,0.1
		c-0.53-0.11-1.08-0.14-1.65-0.06c-1.23,0.16-1.29,2.61-1.29,3.49c0,1.08,0.06,3.06,1.29,3.49c0.62,0.22,1.18,0.24,1.7,0.14
		c0.02,0.13,0.04,0.26,0.07,0.37c1.31,6.13,2.79,12.41,6.02,17.85c0.22,0.38,0.48,0.48,0.73,0.41c0.6,1.95,1.36,3.84,2.49,5.51
		c0.01,0.08,0.01,0.17,0.02,0.25c0.2,1.61,0.65,3.47,1.9,4.61c0.4,0.37,0.81,0.61,1.21,0.75c0.22,0.66,0.44,1.31,0.65,1.97
		c-0.03,0.87,0.08,1.75,0.34,2.61c0.39,1.29,1.2,2.16,2.6,2.13c0.56-0.01,1-0.17,1.35-0.43c1.12,0.38,2.47,0.2,3.41-0.54
		C382.42,301.03,382.32,297.11,381.49,294.92z"/>
	<path class="st4" d="M356.85,341.85c-0.12-3.36-0.57-6.73-1.88-9.82c-0.07-0.55-0.24-1.78-0.76-2.25
		c-0.21-0.66-0.46-1.32-0.78-1.96c-0.41-0.82-1.04-0.39-1.38,0.16c-0.17-0.07-0.36-0.07-0.58,0.04c-0.27,0.14-0.46,0.43-0.59,0.78
		c-0.13,0.02-0.26,0.04-0.38,0.08c-0.44-0.68-1-1.26-1.61-1.79c-0.36-0.31-0.82,0.04-1,0.35c-1.6,2.74-1.65,5.97-1.54,9.06
		c0.03,0.96-0.01,1.9-0.08,2.85c-0.81,1.72-1.42,3.55-1.93,5.29c-0.18,0.59-0.34,1.19-0.5,1.8c-0.15,0.36-0.3,0.72-0.45,1.06
		c-0.66,1.52-1.24,3.08-1.75,4.66c-0.97,3-1.68,6.05-1.92,9.19c-1.06,2.46-2.26,4.86-3.78,7.08c-2.27,3.32-5.29,6.13-6.68,9.99
		c-0.25,0.69-0.36,1.46-0.37,2.23c-1.38,2.13-2.62,4.35-3.72,6.64c-3.75,1.48-6.95,4.76-9.52,7.65c-2.96,3.34-5.91,7.34-6.71,11.84
		c-0.26,0.14-0.51,0.27-0.76,0.41c-0.97,0.54-1.92,1.12-2.86,1.71c-0.15-0.16-0.32-0.25-0.52-0.2c-3.64,0.87-7.14,2.71-10.27,4.72
		c-1.47,0.94-2.94,1.99-4.26,3.19c-1.76,1.02-3.43,2.18-4.91,3.6c-0.6,0.58-0.84,1.48-0.91,2.38c-0.32,0.16-0.63,0.33-0.94,0.5
		c-0.15-0.91-0.47-1.95-1.14-1.85c-7.26,0.99-13.68,5.51-19.65,9.44c-3.31,2.18-6.91,3.99-10.23,6.18c-3.4,0.58-6.65,1.85-9.99,2.76
		c-4.3,1.17-8.69,1.97-13.02,3.01c-0.79,0.19-1.1,1.17-1.22,2.11c-0.86-0.09-1.71-0.17-2.57-0.25c-0.18-0.65-0.45-1.15-0.8-1.31
		c-3.45-1.58-7.25-1.09-10.92-1.29c-3.41-0.19-7.03-1.06-10.41-0.21c-0.21-0.02-0.42-0.04-0.63-0.06c-2.83-1.15-5.69-2.24-8.68-2.91
		c-0.49-0.11-0.98-0.2-1.48-0.3c-2.31-2.01-5.83-2.71-8.66-3.5c-4.36-1.21-8.61-2.45-12.64-4.56c-7.83-4.08-13.42-11.09-18.07-18.44
		c-1.3-2.06-2.14-4.33-3.15-6.53c-0.43-0.94-0.92-1.84-1.37-2.76c-0.04-0.08-0.07-0.16-0.1-0.23c-0.02-1.5-0.19-2.97-0.66-4.43
		c-0.06-0.2-0.14-0.35-0.23-0.48c0.05-2.12,0.03-4.24-0.04-6.34c0.64-1.12,1.05-2.43,1.36-3.59c0.78-2.87,1-5.87,1.11-8.82
		c0.02-0.42,0.03-0.85,0.04-1.27c0,0,0-0.01,0-0.01c0.23-2.69,0.38-5.66,0.03-8.48c-0.02-0.25-0.05-0.51-0.08-0.76
		c1.22-4.37,2.18-8.83,3.06-13.28c1.83-1.87,3.51-3.92,5.05-6c2.23-3.01,4.37-6.29,5.62-9.84c0.45-1.29,0.5-2.84,0.21-4.18
		c2.11-1.77,3.94-3.88,5.74-6c4.82-3.36,8.99-7.69,13.54-11.43c3.91-2.37,7.78-4.79,11.29-7.67c7.46-4.14,13.88-10.08,20.89-15.04
		c3.96-0.19,7.82-1.4,11.52-2.76c4.03-1.48,7.93-3.27,11.91-4.88c0.23-0.09,0.4-0.31,0.54-0.59c0.13,0.1,0.28,0.16,0.45,0.15
		c0.09-0.01,0.19-0.01,0.28-0.02c0.07,0.04,0.14,0.08,0.22,0.1c4.62,0.99,9.53,0.71,14.18,0.13c4.14-0.52,8.41-1.35,12.29-2.99
		c0.68-0.11,1.36-0.21,2.04-0.33c0.18,0.2,0.39,0.33,0.63,0.34c5.02,0.18,10.03-0.7,15.06-0.38c2.69,0.17,5.61,0.57,8.44,0.5
		c0.02,0.01,0.03,0.01,0.05,0.02c0.14,0.33,0.31,0.62,0.56,0.86c1.37,1.31,3.52,1.75,5.51,1.44c0.04,0.06,0.08,0.12,0.12,0.18
		c0.01,1.45,0.27,3.04,1.29,3.05c1.1,0.02,1.95-0.33,2.67-0.86c0.92,0.16,1.6-1.15,2-2.16c0.49-0.66,0.98-1.33,1.54-1.93
		c0,0,0,0,0.01-0.01c0.15-0.16,0.3-0.31,0.47-0.45c0.5,0.16,1,0.32,1.49,0.5c0.96,0.36,1.41-0.75,1.55-2.15
		c0.42-0.05,0.83-0.11,1.24-0.21c1.11-0.27,1.23-2.15,1.27-3.03c0.06-1.3-0.01-2.83-0.93-3.83c-2.1-2.32-5.83-3.01-8.75-3.62
		c-1.72-0.36-3.45-0.75-5.19-0.99c-2.42-0.34-4.86-0.37-7.29-0.42c-2.19-0.05-4.36,0.04-6.53,0.19c-2.75-0.29-5.5-0.52-8.26-0.73
		c-0.17-0.21-0.37-0.38-0.63-0.47c-2.63-0.85-5.44-0.76-8.25-0.3c-1.72-0.15-3.44-0.31-5.16-0.43c-4.59-0.34-9.2-0.52-13.8-0.21
		c-4.62,0.31-9.1,1.23-13.53,2.59c-4.33,1.33-8.57,2.95-12.77,4.64c-3.98,1.6-8.03,3.14-11.91,4.99
		c-8.45,4.03-16.06,9.89-21.96,17.17c-0.36,0.45-0.54,1.11-0.62,1.81c-2.37,1.82-4.77,3.61-7.26,5.27
		c-0.18,0.12-0.33,0.33-0.46,0.59c-1.96,0.98-3.7,2.48-5.32,4.07c-2.54,1.65-4.96,3.53-7.22,5.59c-3.28,2.5-6.04,5.73-8.31,9.14
		c-0.87,1.31-1.68,2.67-2.42,4.07c-0.05,0.08-0.1,0.16-0.14,0.24c-0.09,0.16-0.17,0.32-0.24,0.49c-0.1,0.19-0.19,0.38-0.29,0.57
		c-0.74,1.01-1.37,2.11-1.92,3.23c-0.21-0.25-0.47-0.32-0.79-0.05c-4.18,3.58-6.68,8.89-8.53,13.97c-0.2,0.56-0.4,1.12-0.59,1.69
		c-0.04,0.06-0.09,0.11-0.13,0.17c-0.37-0.46-0.83-0.3-1.19,0.17c-2.52,3.26-3.99,7.4-5.03,11.44c-1.04,1.5-1.82,3.17-2.41,4.93
		c-0.11-0.18-0.24-0.33-0.4-0.4c-0.67-0.3-1.06,0.3-1.26,0.9c-0.76,2.33-1.19,4.7-1.41,7.1c-0.49-0.03-0.79,0.47-0.95,0.97
		c-0.63,1.91-1.03,3.9-1.25,5.9c-0.62,0.45-0.79,1.9-0.85,2.42c-1.04,8.4-1.33,17.8,1.75,25.83c0.09,0.23,0.25,0.49,0.43,0.68
		c0.15,2.14,0.98,3.95,2.17,5.75c0.25,1.62,0.82,3.2,1.63,4.54c0.05,0.08,0.1,0.17,0.16,0.25c0.22,0.47,0.46,0.93,0.76,1.35
		c1.52,3.61,3.58,6.74,6.67,9.36c0,0,0,0,0,0c0.18,0.75,0.48,1.46,0.93,2.06c1.04,1.39,2.62,2.44,4.22,3.32
		c0.4,0.96,0.98,1.82,1.8,2.55c1.1,0.98,2.5,1.71,3.8,2.38c0.08,0.04,0.16,0.08,0.24,0.12c0.94,1.03,2.15,1.84,3.3,2.57
		c0.03,0.02,0.07,0.04,0.1,0.06c0.18,0.58,0.44,1.12,0.79,1.6c1.51,2.04,4.35,2.83,6.66,3.54c3.05,0.93,6.02,1.95,8.97,3.19
		c3.7,1.55,7.28,3.31,11.1,4.57c3.64,1.19,7.35,1.85,11.15,2.27c3.41,0.38,6.89,0.79,10.31,0.3c1.23-0.18,2.67-0.49,3.97-1.03
		c0.38,0.04,0.76,0.07,1.14,0.11c7.92,0.84,16,1.58,23.86-0.18c2.06-0.46,4.08-1.1,6.03-1.92c1.89-0.8,3.6-1.97,5.52-2.71
		c0.7-0.27,1.41-0.49,2.13-0.71c0.77,0.07,1.54,0.09,2.27,0.08c2.15-0.03,4.87-0.34,6.14-2.32c0.02-0.03,0.03-0.06,0.05-0.09
		c0.21,0.15,0.46,0.19,0.76,0.05c1.5-0.67,2.98-1.36,4.46-2.07c0,0.04,0.01,0.09,0.01,0.13c0.05,0.47,0.39,2.81,1.25,2.56
		c6.51-1.84,12.01-6.12,17.59-9.76c0.07-0.05,0.15-0.09,0.22-0.14c2.37-0.09,4.69-1.27,6.66-2.48c1.91-1.18,3.69-2.56,5.44-3.98
		c1.16-0.6,2.32-1.22,3.45-1.88c2.65-1.55,5.17-3.37,7.08-5.8c2.07-1.27,4.17-2.49,6.28-3.7c0.1,0.07,0.22,0.11,0.35,0.1
		c2.47-0.18,4.71-1.6,6.59-3.11c1.29-1.04,2.49-2.19,3.63-3.4c1.76-1.19,3.47-2.43,5.1-3.79c0.38-0.32,0.61-0.81,0.75-1.35
		c6.07-4.33,10.82-10.26,14.61-16.75c0.4-0.54,0.79-1.09,1.17-1.65c1.79-1.68,3.31-3.57,4.62-5.61c0.54,0.29,0.98-0.26,1.19-0.88
		c0.21-0.64,0.43-1.29,0.64-1.93c5.53-9.09,8.01-20.14,7.09-30.68C356.59,349.63,356.99,345.74,356.85,341.85z M351.84,349.01
		C351.84,349.01,351.83,349.01,351.84,349.01c-0.35,0.37-0.65,0.75-0.97,1.13c0.38-1.23,0.72-2.47,1.03-3.7
		c0.01,0.13,0.02,0.26,0.02,0.39C351.9,347.55,351.87,348.28,351.84,349.01z"/>
</g>
<g id="Layer_1">
	<g>
		<path d="M307.96,550.9C307.96,550.9,307.96,550.89,307.96,550.9c-0.04,0.32-0.04,0.35-0.03,0.28c0.01-0.09,0.02-0.18,0.03-0.26
			C307.96,550.91,307.96,550.9,307.96,550.9z"/>
		<path d="M478.88,271.93c-0.03-0.47-0.1-0.93-0.19-1.34c-0.13-0.57-0.61-1.78-1.21-1.72c-0.11-0.11-0.23-0.21-0.36-0.31
			c-0.12-0.09-0.22-0.13-0.32-0.14c-0.18-0.28-0.36-0.55-0.52-0.84c-0.42-0.71-0.82-1.44-1.17-2.19c-0.7-1.49-1.27-3.04-1.81-4.6
			c-1.14-3.32-2.06-6.72-3.35-9.98c-2.72-6.88-7.6-12.61-10.36-19.45c-0.25-0.63-0.61-0.93-0.96-0.9c-0.02-0.06-0.03-0.12-0.05-0.19
			c1.33-1.13,1.18-6.78-0.49-6.77c-18.89,0.11-37.7-1.73-56.51-3.13c-9.42-0.7-18.86-1.3-28.3-1.49
			c-9.38-0.18-18.76-0.17-28.15-0.41c-37.5-0.96-74.95-3.53-112.47-3.35c-21.01,0.1-42.04,1.09-62.9,3.7
			c-0.67,0.08-1.06,0.93-1.25,2c-0.13,0.07-0.26,0.19-0.4,0.41c-8.91,14.62-15.35,30.46-23.06,45.7
			c-7.8,15.41-16.81,30.16-25.66,44.98c-8.96,15-17.45,30.26-25.75,45.63c-8.36,15.5-16.64,31.04-25.55,46.24
			c-4.04,6.9-7.91,13.86-11.67,20.91c-3.71,6.96-7.49,13.92-12.04,20.38c-1.07,1.52-2.19,3.01-3.36,4.47
			c-0.92,1.15-0.76,3.44-0.46,4.78c0.01,0.04,0.02,0.09,0.03,0.14c-0.09,0.39-0.14,0.78-0.16,1.02c-0.09,0.87-0.24,3.82,0.9,4.3
			c0.29,0.12,0.58,0.21,0.87,0.33c0.06,0.6,0.25,1.12,0.58,1.12c0.25,0,0.42-0.3,0.51-0.71c0.46,0.17,0.92,0.31,1.38,0.46
			c-0.09,0.23-0.16,0.47-0.21,0.67c-0.29,1.28-0.45,3.65,0.46,4.78c5.34,6.59,10.56,13.37,14.43,20.96c1.62,3.18,2.89,6.53,4.33,9.8
			c0.74,1.68,1.5,3.34,2.36,4.96c0.68,1.28,1.45,2.87,2.61,3.79c0.92,0.74,1.41-1.55,1.47-1.95c0.21-1.34,0.2-3.01-0.51-4.21
			c-0.76-1.29-1.65-2.48-2.35-3.81c-0.79-1.5-1.48-3.06-2.15-4.62c-1.48-3.42-2.86-6.87-4.56-10.19
			c-3.58-6.96-8.29-13.24-13.18-19.33c6.57,1.88,13.39,2.74,20.18,3.64c9.46,1.25,18.75,3.3,28.08,5.27
			c9.49,2,19.07,3.51,28.57,5.47c9.48,1.95,18.91,4.14,28.33,6.33c18.37,4.27,36.74,8.22,55.32,11.44
			c17.49,3.03,35.15,6.03,51.95,11.91c8.99,3.15,17.79,6.85,26.73,10.14c5.45,2,10.58,5.47,16.32,6.65
			c-0.25,0.27-0.49,0.54-0.75,0.8c-1.03,1.03-1.04,2.94-0.9,4.3c0.04,0.39,0.65,3.38,1.59,2.44c0.57-0.57,1.1-1.16,1.63-1.76
			c0.08,0.23,0.18,0.46,0.29,0.67c0.34,0.62,0.63,1.25,0.89,1.88c0.21,1.02,0.48,2.02,0.79,3.01c-0.01,0.2-0.02,0.4-0.02,0.59
			c-0.1,2.66-0.05,5.25,0.37,7.89c0.22,1.38,0.49,2.74,0.73,4.11c0.06,0.35,0.12,0.69,0.18,1.04c0.01,0.04,0.02,0.12,0.03,0.19
			c0.02,0.11,0.03,0.21,0.05,0.32c0.08,0.65,0.16,1.31,0.21,1.96c-0.01,0.04,0.01,0.59,0.01,0.77c0-0.03,0.01-0.04,0.01-0.07
			c0,0.03-0.01,0.06-0.01,0.09c0,0.08-0.02,0.2-0.03,0.26c-0.01,0.06-0.01,0.12-0.02,0.18c-0.03,0.13-0.06,0.25-0.08,0.38
			c-0.01-0.03-0.19,0.54-0.24,0.66c-0.32,0.69-1.01,1.38-1.8,1.94c-6.98,0.27-13.97-1.3-20.76-2.72c-7.66-1.6-15.36-2.83-23.07-4.14
			c-16.99-2.89-33.95-6.06-50.77-9.84c-16.98-3.82-33.85-8.12-50.78-12.17c-8.31-1.99-16.64-3.85-24.91-5.98
			c-8.27-2.13-16.51-4.39-24.83-6.38c-3.73-0.89-7.51-1.59-11.23-2.51c-2.6-0.64-5.16-1.46-7.73-2.22
			c-5.32-1.58-11.21-3.57-16.84-3.04c-1.11,0.1-2.16,0.37-3.19,0.78c-0.43,0.17-0.7,1.27-0.77,1.6c-0.19,0.86-0.22,1.82-0.13,2.69
			c0.08,0.81,0.38,2.92,1.59,2.44c2.15-0.86,4.73-0.67,6.98-0.4c2.9,0.35,5.74,1.05,8.55,1.82c2.83,0.78,5.63,1.66,8.44,2.47
			c2.94,0.85,5.92,1.44,8.9,2.1c8.27,1.83,16.45,4.02,24.64,6.17c8.31,2.18,16.66,4.17,25.03,6.14c16.79,3.95,33.5,8.22,50.3,12.11
			c16.79,3.89,33.71,7.19,50.69,10.16c7.98,1.39,16.02,2.52,23.96,4.11c7.11,1.43,14.22,3.22,21.48,3.72
			c0.89,0.06,1.78,0.09,2.67,0.1c0.18,0.33,0.43,0.6,0.79,0.69c1.14,0.3,2.29,0.43,3.45,0.59c0.41,0.04,0.73-0.35,0.96-0.95
			c0.52-0.43,1.04-0.86,1.56-1.29c0.17,0.08,0.38,0.09,0.61-0.04c1.29-0.7,2.5-1.52,3.7-2.37c0.27,0.12,0.56,0.09,0.85-0.17
			c0.28-0.25,0.48-0.56,0.65-0.9c0.1-0.07,0.21-0.15,0.31-0.22c0.05-0.04,0.09-0.09,0.13-0.14c0.23,0.29,0.5,0.39,0.81,0.1
			c6.75-6.11,11.16-14.31,15.64-22.11c5.04-8.77,10.9-17.04,16.45-25.5c5.99-9.12,12.36-17.95,18.45-27
			c6.01-8.93,11.67-18.08,17.1-27.36c10.8-18.48,20.66-37.49,30.41-56.53c10.1-19.74,19.7-39.74,29.71-59.53
			c4.95-9.79,10.27-19.37,15.34-29.09c4.79-9.17,8.73-18.77,13.66-27.88c0.99-1.83,2.04-3.63,3.13-5.41
			c0.08-0.03,0.16-0.07,0.23-0.14C478.86,275.26,479.06,273.45,478.88,271.93z M300.04,514.85c-3.24-1.13-6.32-2.71-9.43-4.13
			c-3.6-1.64-7.37-2.84-11.07-4.24c-4.47-1.69-8.91-3.46-13.36-5.2c-16.52-6.45-33.86-9.99-51.27-13.06
			c-8.81-1.55-17.64-3-26.41-4.73c-9.5-1.87-18.94-4-28.37-6.18c-9.34-2.16-18.67-4.37-28.04-6.41c-9.48-2.07-19.01-3.74-28.54-5.55
			c-9.52-1.81-18.94-4.14-28.5-5.76c-8.82-1.5-17.83-2.03-26.5-4.35c-1.61-0.43-3.2-0.93-4.76-1.51
			c8.99-11.86,14.95-25.7,22.43-38.49c8.86-15.15,17.34-30.47,25.66-45.92c8.31-15.42,16.65-30.82,25.58-45.89
			c8.8-14.86,17.92-29.55,26-44.82c7.99-15.1,14.36-31.01,22.78-45.89c1.04-1.84,2.11-3.65,3.2-5.45c0.27-0.44,0.44-0.95,0.54-1.48
			c37.29-4.65,74.97-4.07,112.45-2.68c18.65,0.69,37.3,1.59,55.96,2.16c18.81,0.57,37.63,0.33,56.42,1.6
			c20.46,1.38,40.89,3.6,61.42,3.62c-4.85,6.74-6.96,15.23-9.64,22.96c-3.4,9.79-8.47,18.85-13.38,27.94
			c-5.32,9.85-10.08,19.99-14.94,30.06c-5,10.34-9.98,20.69-14.97,31.04c-10.02,20.77-20.06,41.53-30.24,62.22
			c-9.74,19.8-20.93,38.82-32.3,57.72c-5.69,9.45-11.26,18.98-17.08,28.35c-2.97,4.79-6.1,9.48-9.05,14.28
			c-2.18,3.55-4.22,7.2-6.49,10.69C305.47,516.51,302.55,515.73,300.04,514.85z M463.03,296.65c-4.64,9.66-10.03,18.95-14.94,28.47
			c-10.18,19.73-19.66,39.81-29.74,59.59c-9.71,19.05-19.46,38.1-30.02,56.69c-5.28,9.3-10.77,18.48-16.56,27.46
			c-5.85,9.07-12.24,17.76-18.24,26.72c-3.05,4.56-6.04,9.16-9.06,13.74c-2.82,4.27-5.8,8.45-8.51,12.79
			c-4.84,7.75-8.78,16.13-14.54,23.28c-1.31,1.62-2.73,3.13-4.27,4.53c-0.03,0.03-0.05,0.07-0.08,0.1
			c-0.23-0.39-0.56-0.61-1.03-0.39c-0.54,0.26-1.05,0.54-1.56,0.85c-0.04-0.07-0.07-0.14-0.11-0.2c-0.24-0.32-0.57-0.65-1-0.35
			c-0.65,0.46-1.29,0.96-1.89,1.49c-0.05-0.22-0.11-0.44-0.16-0.66c-0.07-0.3-0.13-0.61-0.18-0.92c0-0.01-0.08-0.46-0.1-0.58
			c-0.34-2.3-0.51-4.62-0.69-6.93c0.04-0.23,0.06-0.43,0.08-0.56c0.29-2.92,0.2-5.9-0.17-8.86c-0.22-2.5-0.59-4.99-1.14-7.43
			c-0.04-0.95-0.1-1.91-0.22-2.86c0.96-1.43,1.89-2.89,2.78-4.36c2.75-4.55,5.44-9.12,8.32-13.6c6.02-9.38,11.68-18.98,17.45-28.52
			c11.44-18.95,22.89-37.92,33.02-57.62c10.49-20.4,20.25-41.2,30.22-61.85c5.04-10.43,10.06-20.87,15.1-31.3
			c4.94-10.25,9.73-20.6,14.92-30.72c4.94-9.62,10.49-18.94,14.83-28.86c3.56-8.16,5.41-17.05,9.45-25c0.81-1.6,1.74-3.13,2.8-4.58
			c0.01,0.03,0.02,0.06,0.03,0.09c2.96,7.36,8.24,13.5,10.94,20.99c1.26,3.5,2.21,7.1,3.54,10.58c0.2,0.53,1.24,3.07,2.42,5.23
			C470.33,280.7,466.81,288.76,463.03,296.65z"/>
	</g>
	<path d="M574.25,813.85c-0.79,0-0.8,3.02,0,3.02C575.04,816.86,575.05,813.85,574.25,813.85z"/>
	<path d="M356.96,328.03c0.16-0.15,0.25-0.3,0.22-0.45c-0.14,0-0.26-0.06-0.36-0.16c-0.24-1.01-0.5-2.01-0.78-3.01
		c-0.02,0.01-0.03,0.01-0.05,0.02c-0.14-0.58-0.32-1.05-0.64-1.24c-6.33,0.8-22.58,4.85-28.77,6.37
		c-7.06,1.73-12.57,3.69-19.53,5.77c-6.95,2.08-15.35,4.3-22.23,6.59c-6.85,2.27-13.74,4.44-20.53,6.87
		c-3.63,1.3-7.26,2.61-10.77,4.19c-2.09,0.94-4.16,1.93-6.28,2.8c15.45-21.16,32.77-41.15,52.53-58.39
		c2.95-2.57,5.96-5.09,9.01-7.54c1.96-1.57,3.97-3.09,5.93-4.68c0.3-1.07,1.78-2.06,2.53-2.86c0.71-0.76,1.23-1.37,2.04-1.92
		c0.27-1.16,0.74-1.46,1.39-2.35c-13.35-8.65-31.33-12.84-47.6-13.43c-22.88-0.83-45.66,3.51-65.72,14.29
		c-20.21,10.86-37.87,26.3-52.15,44.2c-13.87,17.39-24.87,37.38-27.9,59.67c-1.48,10.88-0.9,22.19,2.57,32.65
		c3.34,10.07,9.55,18.71,17.43,25.74c14.46,12.91,34.27,21.39,53.87,20.59c0.08,0.04,0.17,0.07,0.27,0.07
		c6.91-0.14,13.84,0.52,20.75,0.53c6.89,0.02,13.81-0.31,20.61-1.5c12.93-2.26,25.54-7.06,37.37-12.65
		c20.55-9.71,40.16-22.28,55.25-39.47c7.12-8.11,13.12-17.17,17.34-27.13c4.37-10.31,6.52-21.39,6.55-32.58
		C359.34,341.94,358.55,334.87,356.96,328.03z M342.25,393.23c-12.11,17.33-29.28,30.47-47.54,40.76
		c-11.14,6.28-22.78,11.79-34.94,15.78c-6.08,1.99-12.31,3.72-18.64,4.73c-6.66,1.07-13.38,1.26-20.11,1.37
		c-0.69-0.39-1.47-0.84-2.17-1.23c-0.16-0.23-0.35-0.33-0.59-0.24c-1.71,0.62-3.44,1.14-5.19,1.56c-0.05,0.01-0.09,0.01-0.14,0.02
		c-3.83-0.03-7.65,0.25-11.48,0.33c-0.42,0.01-0.72,0.48-0.9,1.14c-14.18,0.07-28.61-4.92-40.46-12.11
		c-8.52-5.17-16.38-11.89-22.02-20.16c-5.7-8.34-8.88-18.35-9.28-28.29c-0.83-20.63,8.14-40.54,19.66-57.34
		c12.52-18.27,28.53-34.27,46.97-46.55c18.5-12.33,39.58-20.83,61.82-22.91c19.35-1.81,39.03,1.4,56.31,10.2
		c-1.53,1.11-3.01,2.31-4.47,3.46c-2.73,2.16-5.41,4.38-8.05,6.64c-5.03,4.3-9.91,8.78-14.66,13.39c-0.03-0.75-0.19-1.42-0.51-1.61
		c-3.2-1.88-7.13-1.12-10.32,0.38c-3.32,1.56-6.33,4.36-7.53,7.9c-0.86,2.55-0.86,5.31-0.08,7.88c0.26,0.87,0.93,0.77,1.23,0
		c0.4-1.03,0.31-2.28,0-3.31c0.07,0.22,0-0.07-0.05-0.28c0.06,0.14,0-0.74-0.02-0.08c0,0,0,0,0,0c0-0.04,0-0.09,0-0.13
		c0-0.03,0.01-0.06,0.01-0.11c0-0.01,0-0.02,0-0.03c0.02-0.1,0.04-0.19,0.06-0.28c0.02-0.06,0.03-0.1,0.03-0.13
		c0.03-0.08,0.05-0.17,0.08-0.25c0.06-0.17,0.13-0.34,0.2-0.51c0.12-0.29,0.37-0.73,0.61-1.1c1.08-1.68,2.62-2.98,4.3-4.04
		c2.86-1.82,6.52-2.92,9.9-2.23c-9.49,9.38-18.42,19.33-26.74,29.76c-4.9,6.14-9.6,12.45-14.13,18.87
		c-0.52,0.74-1.63,1.86-1.56,2.88c-0.08,0.02,0.34,0.55,0.27,0.57c-1.6,0.44-0.59,5.26,0.5,4.97c3.26-0.85,6.34-2.2,9.41-3.57
		c3.13-1.4,6.31-2.65,9.54-3.81c6.79-2.42,13.66-4.61,20.52-6.84c13.8-4.48,27.62-8.9,41.67-12.55c6.99-1.82,14.08-3.23,21.08-4.97
		c0.03,1.63,0.12,3.27-0.02,4.89c-0.1,1.13-0.43,2.11-0.86,3.07c-0.04,0.02-0.07,0.02-0.11,0.05c-2.68,2.1-5.85,4.28-9.37,4.42
		c-1.49,0.06-2.89-0.31-4.04-1.29c-1.42-1.21-1.98-2.98-2.31-4.68c-0.11-0.58-0.6-1.66-1.2-0.85c-0.61,0.81-0.49,2.33-0.32,3.25
		c0.6,3.17,1.97,6.78,5.27,7.94c2.67,0.94,5.6-0.01,8.01-1.27c0.46-0.24,0.91-0.51,1.34-0.79c-0.45,1.65-0.78,3.33-1.09,5.04
		c-0.33,1.8-0.61,3.64-1.22,5.37c-0.61,1.71-1.45,3.31-2.39,4.86c-1.92,3.16-4.2,6.1-5.98,9.35c-1.9,3.47-3.43,7.07-5.56,10.42
		c-2.16,3.41-4.59,6.64-7.14,9.77c-4.93,6.04-9.99,12.71-16.92,16.57c-3.39,1.89-7.04,3.25-10.35,5.26
		c-3.24,1.97-6.22,4.35-9.4,6.41c-3.49,2.26-7.14,3.66-11.12,4.83c-4.09,1.2-7.96,2.64-11.79,4.51c-7.32,3.57-14.45,7.77-22.36,9.91
		c-3.92,1.06-7.79,1.38-11.82,0.81c-3.75-0.54-7.41-1.59-11.17-2.06c-3.68-0.45-7.47,0-11.1-0.87c-3.85-0.93-7.11-3.42-11.19-3.46
		c-3.36-0.03-6.75,0.89-10.06-0.07c-2.03-0.59-3.86-1.82-5.7-2.84c-1.95-1.09-3.9-2.17-5.85-3.24c-3.27-1.8-6.04-4.36-8.45-7.19
		c-2.39-2.8-4.81-5.78-6.55-9.03c-3.64-6.77-3.95-14.53-3.46-22.03c0.29-4.36,0.77-8.71,1.32-13.04c0.5-3.95,1.03-7.86,1.97-11.73
		c1.87-7.63,5.1-15.02,9.9-21.26c4.78-6.21,10.61-11.6,16.34-16.9c2.89-2.67,5.8-5.33,8.96-7.68c3.28-2.44,6.8-4.2,10.43-6.05
		c3.91-1.99,7.73-4.21,11.38-6.65c3.04-2.03,5.75-4.54,8.9-6.42c3.5-2.09,7.31-2.68,11.29-3.19c1.99-0.25,3.99-0.52,5.94-1.01
		c2.08-0.52,4.04-1.36,6.03-2.13c4.07-1.58,8.23-3,12.52-3.85c4.36-0.86,8.78-0.86,13.2-0.69c4.42,0.17,8.86,0.42,13.28-0.03
		c3.2-0.33,6.33-1.27,9.55-1.41c3.19-0.14,5.91,0.88,7.75,3.57c0.64,0.93,1.18-0.35,1.31-0.93c0.23-1.04,0.28-2.61-0.34-3.55
		c-1.86-2.81-4.54-4.41-7.92-4.53c-3.25-0.12-6.43,0.79-9.63,1.15c-9.14,1.04-18.3-0.94-27.43,0.7c-4.35,0.78-8.54,2.16-12.66,3.73
		c-2.16,0.82-4.26,1.68-6.52,2.18c-2.03,0.45-4.09,0.68-6.14,0.96c-4.03,0.54-7.82,1.4-11.31,3.57c-3.24,2.02-6.09,4.6-9.28,6.7
		c-3.78,2.5-7.68,4.83-11.73,6.87c-3.74,1.88-7.23,3.97-10.5,6.61c-3.21,2.6-6.17,5.48-9.19,8.3c-2.94,2.75-5.87,5.52-8.66,8.43
		c-2.74,2.86-5.42,5.83-7.73,9.05c-2.41,3.36-4.36,7.04-5.98,10.84c-3.42,8.02-4.82,16.42-5.85,25.03
		c-1.05,8.69-2.1,17.75-0.91,26.48c0.56,4.09,1.55,8.15,3.31,11.89c1.63,3.47,3.99,6.59,6.48,9.49c2.49,2.89,5.18,5.8,8.4,7.89
		c1.8,1.17,3.76,2.14,5.63,3.19c1.98,1.11,3.93,2.38,6,3.3c3.32,1.48,6.53,1.09,10.04,0.88c2.04-0.12,3.98-0.01,5.93,0.65
		c1.92,0.65,3.71,1.64,5.63,2.29c3.7,1.25,7.55,0.83,11.38,1.16c3.94,0.34,7.76,1.43,11.65,2.06c4.15,0.68,8.12,0.48,12.19-0.61
		c4.01-1.08,7.86-2.68,11.6-4.48c3.8-1.83,7.51-3.85,11.28-5.74c4.09-2.04,8.22-3.55,12.58-4.88c3.97-1.21,7.58-2.74,11.04-5.04
		c3.28-2.18,6.35-4.68,9.75-6.68c3.47-2.04,7.27-3.45,10.72-5.54c3.48-2.11,6.43-4.97,9.12-8c5.42-6.09,10.85-12.31,15.11-19.3
		c2.1-3.44,3.58-7.2,5.67-10.64c2-3.27,4.33-6.33,6.15-9.71c1.87-3.48,2.68-7.11,3.39-10.97c0.29-1.59,0.58-3.2,1.08-4.73
		c0.61-1.84,1.61-3.45,2.38-5.22c1.64-3.75,1.31-7.89,1.28-11.88c0.39-0.1,0.78-0.19,1.17-0.29c0.55-0.14,4.16-0.66,6.73-1.36
		c0.57,2.15,1.06,4.33,1.44,6.53c1.71,9.98,1.5,20.22-0.9,30.09C352.68,375.59,348.09,384.88,342.25,393.23z"/>
	<path d="M386.15,303.37c-1.82-7.97-4.43-15.82-7.24-23.49c-2.8-7.63-6.01-15.1-9.69-22.35c-0.57-1.13-1.29,0.5-1.4,0.99
		c-0.27,1.23-0.21,2.65,0.37,3.78c3.56,7.05,6.63,14.33,9.33,21.75c1.9,5.23,3.51,10.54,5.19,15.84c-2.71,0.41-5.39,1.11-8.06,1.8
		c-0.08-0.21-0.18-0.38-0.31-0.47c-0.89-0.65-1.78-1.35-2.69-2.03c0.06-0.73-0.02-1.47-0.24-2.15c-1.76-5.68-4.66-11.05-7.04-16.5
		c-2.34-5.37-4.48-10.86-5.62-16.62c-0.14-0.71-0.69-1.95-1.43-1.01c-0.73,0.92-0.59,2.81-0.38,3.87
		c1.23,6.02,3.48,11.76,5.92,17.38c1.23,2.82,2.5,5.62,3.78,8.41c0.68,1.5,1.33,3.03,1.99,4.54c-1.23-0.74-2.51-1.34-3.89-1.68
		c-1.59-0.39-3.27-0.12-4.45,1.08c-1.37,1.38-2.08,3.28-2.38,5.18c-0.21,1.32-0.28,2.91,0.03,4.36c-6.58,1.77-13.14,3.6-19.67,5.54
		c-7.36,2.18-14.77,4.35-21.92,7.15c-6.86,2.69-13.48,5.95-20.09,9.2c-0.64,0.31-1.28,0.63-1.92,0.94
		c-0.38-0.23-0.78-0.42-1.19-0.58c-0.84-0.33-1.7-0.59-2.59-0.73c-1.43-0.23-3.34-0.21-4.12,1.25c-0.66,1.23-0.74,2.72-0.53,4.12
		c-3.75,1.75-7.55,3.42-11.41,4.91c7.62-7.84,14.85-16.05,22.32-24.04c-0.01,0.03-0.03,0.05-0.04,0.08c-0.34,0.89-0.36,2.19,0,3.08
		c0.91,2.27,2.38,4.34,4.83,5.03c2,0.56,4.16-0.08,5.9-1.1c5.1-3.01,7.34-9.77,5.39-15.3c-0.66-1.86-1.8-3.47-3.13-4.91
		c11.62-10.96,24.4-20.63,37.33-29.99c3.52-2.54,6.77-5.42,10.15-8.12c3.42-2.74,7-4.97,10.86-7.02c0.96-0.51,0.8-4.95-0.23-4.68
		c-3.55,0.92-6.74,3.23-9.64,5.4c-3.11,2.32-6.04,4.85-9.1,7.23c-3.32,2.58-6.82,4.93-10.19,7.44c-3.55,2.64-7.06,5.32-10.53,8.07
		c-6.91,5.47-13.6,11.22-19.93,17.36c-0.53,0.51-1.04,1.04-1.56,1.56c-0.07-0.06-0.13-0.12-0.2-0.17c-0.5-0.44-0.77,0.79-0.84,1.21
		c-5.24,5.24-10.27,10.7-15.24,16.2c-6.5,7.2-12.97,14.44-19.81,21.32c-0.71,0.71-0.72,2.02-0.62,2.95
		c0.03,0.27,0.44,2.32,1.09,1.68c0.58-0.58,1.14-1.17,1.72-1.75c-0.32,1.72,0.25,4.61,0.97,4.35c13.84-4.93,26.5-12.45,40.02-18.12
		c7.13-2.99,14.56-5.25,21.95-7.52c7.59-2.32,15.22-4.5,22.87-6.58c4.22-1.15,8.44-2.26,12.67-3.4c4.23-1.14,8.59-2.08,12.68-3.67
		c0.2,0.61,0.39,1.23,0.6,1.84c0.25,0.72,0.77,0.89,1.15,0.19C386.38,305.57,386.36,304.28,386.15,303.37z M306.5,303.79
		c0.38-0.37,0.76-0.72,1.14-1.09c1.4,1.46,2.74,3.03,3.63,4.84c0.17,0.35,0.39,0.88,0.46,1.14c0.02,0.05,0.13,0.59,0.14,0.58
		c0.02,0.12,0.03,0.24,0.04,0.36c0,0.04,0.01,0.07,0.01,0.09c0,0.01-0.01,0.02-0.01,0.07c0,0.05,0,0.08,0,0.1
		c-0.01,0.08-0.03,0.26-0.03,0.3c-0.02,0.1-0.11,0.49-0.15,0.61c-0.17,0.58-0.43,1.14-0.73,1.66c-1.67,2.96-5.14,5.71-8.72,5.22
		c-2.11-0.29-3.59-1.9-4.37-3.79c-0.18-0.43-0.43-0.61-0.66-0.55C300.28,310.1,303.35,306.9,306.5,303.79z M361.17,305.16
		c-0.3,0.08-0.61,0.17-0.91,0.25c-0.07-0.26-0.17-0.5-0.32-0.68c-0.09-0.11-0.17-0.22-0.26-0.34c-0.03-0.04-0.11-0.18-0.13-0.21
		c-0.03-0.08-0.06-0.16-0.09-0.24c0.02,0.04,0-0.06-0.02-0.14c0-0.06-0.01-0.12-0.01-0.16c0-0.01,0-0.02,0-0.03
		c0.01-0.04,0.01-0.09,0.02-0.14c0.01,0,0.06-0.26,0.08-0.37c0-0.02,0-0.02,0.01-0.03c0.02-0.05,0.03-0.11,0.05-0.16
		c0.06-0.16,0.12-0.32,0.18-0.47c0.1-0.24,0.19-0.43,0.4-0.75c0.33-0.51,0.72-0.95,1.23-1.28c2.53-1.67,6.09,0.81,8.16,2.2
		c0.14,0.09,0.27,0.19,0.41,0.28C367.03,303.64,364.1,304.38,361.17,305.16z"/>
	<path d="M217.08,408.86c-1.9-5.42-6.7-10.45-12.89-9.47c-2.4,0.38-4.61,1.41-6.19,3.29c-1.53,1.82-2.25,4.23-2.47,6.57
		c-0.44,4.79,0.89,10.11,4.34,13.59c1.48,1.49,3.52,2.54,5.67,2.41c2.8-0.17,5.01-2.07,6.76-4.09c0.71-0.82,0.57-2.62,0.35-3.59
		c-0.16-0.71-0.6-1.78-1.33-0.94c-2.38,2.74-6,4.47-9.37,2.39c-1.48-0.91-2.46-2.1-3.3-3.6c-0.35-0.63-0.61-1.28-0.94-2.22
		c-0.02-0.06-0.04-0.11-0.05-0.13c-0.01-0.03-0.01-0.07-0.03-0.14c-0.05-0.21-0.1-0.43-0.15-0.64c-0.02-0.09-0.03-0.18-0.05-0.27
		c-0.02-0.22-0.04-0.44-0.07-0.66c0-0.02,0-0.02-0.01-0.04c0-0.03,0-0.05,0-0.1c0-0.22,0-0.43,0.01-0.65
		c-0.01,0.78,0.01,0.09,0.03-0.12c0.01-0.08,0.01-0.13,0.01-0.17c0.01-0.04,0.02-0.08,0.04-0.16c0.04-0.15,0.07-0.3,0.11-0.45
		c0.02-0.06,0.09-0.29,0.13-0.39c0.22-0.59,0.14-0.42,0.43-0.93c0.87-1.48,2.31-2.58,4-3.17c4.88-1.69,9.56,0.58,12.19,4.84
		c0.36,0.58,0.65,1.12,0.9,1.71c0.14,0.32,0.26,0.64,0.38,0.97c0.05,0.15,0.1,0.29,0.15,0.44c0.02,0.06,0.03,0.1,0.05,0.14
		c0,0.02,0.01,0.03,0.02,0.06c0.09,0.33,0.17,0.67,0.23,1c0.02,0.08,0.03,0.16,0.04,0.24c0,0.06,0.05,0.39,0.05,0.43
		c0.01,0.11,0.02,0.23,0.03,0.34c0,0.04,0,0.08,0,0.13c0,0.14,0,0.29,0,0.43c0,0.01,0,0.01,0,0.02c-0.02,0.14-0.03,0.29-0.04,0.43
		c0,0.04,0,0.05,0,0.08c-0.01,0.03-0.01,0.04-0.03,0.09c-0.04,0.14-0.06,0.28-0.09,0.42c-0.01,0.04-0.02,0.07-0.02,0.09
		c0,0.01-0.01,0.02-0.01,0.04c-0.23,0.7-0.37,1.05-0.69,1.59c-0.73,1.22-1.74,2.22-2.84,3.1c-0.93,0.75-0.98,5.66,0.51,5.02
		c2.84-1.22,4.34-4.25,4.95-7.14C218.6,416.12,218.28,412.3,217.08,408.86z"/>
	<path d="M183.55,386.12c-1.84,1.91-4.28,3.2-6.58,4.47c-0.9,0.49-0.57,4.41,0.21,4.13c2.47-0.9,5-1.94,6.86-3.87
		c2.32-2.4,3.13-5.64,2.83-8.93c-0.24-2.64-1.38-5.09-3.56-6.66c-1.84-1.33-4.2-1.99-6.45-2c-11.06-0.03-13.79,15.31-7.87,22.57
		c1.47,1.8,3.4,3.15,5.7,3.61c2.57,0.51,5.14-0.33,7.3-1.71c1.08-0.69,0.51-5-0.45-4.38c-3.2,2.07-7.11,2.42-10.25,0.04
		c-1.28-0.98-2.36-2.37-2.98-3.77c-0.4-0.9-0.53-1.35-0.68-2.21c0.01,0.02-0.06-0.43-0.06-0.51c-0.01-0.09-0.01-0.2-0.02-0.27
		c0-0.14,0-0.29,0-0.43c0.01-0.01,0.02-0.37,0.04-0.5c0.01-0.08,0.02-0.16,0.03-0.24c0-0.01,0-0.02,0.01-0.05
		c0.04-0.22,0.09-0.43,0.14-0.64c0.09-0.37,0.05-0.16,0.02-0.08c0.04-0.12,0.08-0.24,0.12-0.36c0.09-0.24,0.18-0.48,0.28-0.71
		c0.36-0.81,0.92-1.65,1.52-2.35c1.27-1.49,2.94-2.66,4.86-3.08c3.53-0.76,8.42,0.32,10.21,3.79c0.23,0.44,0.26,0.6,0.35,0.99
		c-0.07-0.33,0.01,0.36,0.01,0.27c0,0.09-0.01,0.12-0.03,0.24C184.94,384.32,184.28,385.37,183.55,386.12z"/>
	<path d="M209.34,340.38c-1.34-4.36-5.08-8.23-9.55-9.34c-5.1-1.26-10.09,2.51-12.02,7.07c-2,4.71-1.16,10.82,2.38,14.59
		c1.65,1.76,3.95,2.9,6.36,3.07c2.58,0.18,5.05-0.84,7.1-2.34c0.09,0.07,0.18,0.11,0.28,0.08c2.44-0.7,4.4-2.17,5.37-4.57
		C210.33,346.25,210.17,343.09,209.34,340.38z M208.09,344.91c-0.03,0.07-0.14,0.44-0.18,0.54c-0.01,0.02-0.01,0.02-0.01,0.03
		c-0.06,0.12-0.12,0.24-0.19,0.35c-0.25,0.44-0.54,0.82-0.85,1.15c-0.9,0.94-2.03,1.63-3.19,2.2c-0.15,0.07-0.27,0.25-0.36,0.48
		c-3.26,2.34-7.4,3.14-10.93,0.72c-1.48-1.02-2.79-2.61-3.41-4.12c-0.08-0.19-0.16-0.39-0.23-0.58c-0.04-0.11-0.17-0.53-0.17-0.52
		c-0.01-0.04-0.1-0.45-0.13-0.56c-0.01-0.04-0.01-0.07-0.02-0.11c0-0.02-0.04-0.24-0.04-0.31c-0.01-0.1-0.02-0.2-0.03-0.3
		c0.02-0.17,0.06-0.88-0.01-0.27c0.01-0.08,0.04-0.43,0.05-0.54c0.01-0.09,0.03-0.19,0.03-0.19c0.03-0.13,0.06-0.26,0.09-0.39
		c0.01-0.04,0.03-0.12,0.05-0.18c0.02-0.07,0.05-0.15,0.07-0.22c0.09-0.23,0.17-0.46,0.27-0.69c0.14-0.31,0.42-0.8,0.69-1.21
		c0.63-0.94,1.44-1.74,2.33-2.44c1.72-1.34,3.62-2.26,5.84-2.19c3.92,0.12,7.48,2.92,9.37,6.22c0.34,0.6,0.34,0.6,0.57,1.18
		c0.1,0.26,0.19,0.53,0.28,0.79c0,0.01,0,0.01,0,0.01c0.03,0.12,0.06,0.24,0.08,0.37c0.01,0.07,0.03,0.13,0.04,0.2
		c0.01,0.04,0.01,0.08,0.02,0.15c0.01,0.05,0.01,0.07,0.01,0.11c0,0.03,0,0.05-0.01,0.1c0,0.02,0,0.02,0,0.04
		c-0.01,0.06-0.02,0.12-0.02,0.15C208.12,344.34,208.12,344.64,208.09,344.91z"/>
	<g>
		<path d="M217.63,380c0,0.01,0,0.01,0,0.01c0,0.01,0,0.02,0.01,0.02c-0.01-0.06-0.02-0.15-0.03-0.2
			C217.62,379.89,217.62,379.94,217.63,380z"/>
		<path d="M234.71,373.29c-1.65-2.27-4.42-3.68-6.8-5.05c-1.34-0.77-2.84-1.53-4.4-1.68c-1.78-0.17-3.12,0.68-4.18,2.03
			c-0.52,0.66-0.46,1.99-0.33,2.75c0,0.02,0.01,0.06,0.02,0.08c-5.27,5-3.8,15.42,2.36,19.19c1.36,0.83,2.98,1.32,4.58,1.17
			c1.87-0.18,3.58-1.13,4.93-2.41c1.99-1.88,3.61-4.45,4.49-7.04C236.34,379.51,236.56,375.83,234.71,373.29z M233.91,378.74
			c-0.1,0.26-0.2,0.51-0.32,0.76c-0.23,0.47-0.61,1.14-0.94,1.66c-0.54,0.87-1.2,1.8-1.84,2.47c-1.12,1.18-2.57,2.22-4.05,2.59
			c-0.68,0.17-1.39,0.23-2.09,0.19c-0.31-0.02-0.62-0.06-0.93-0.12c-0.16-0.03-0.32-0.07-0.48-0.12c-0.09-0.03-0.46-0.15-0.37-0.11
			c-1.28-0.47-2.41-1.32-3.33-2.33c0,0,0,0,0,0c0,0,0,0,0,0c-0.06-0.07-0.12-0.15-0.18-0.22c-0.1-0.12-0.19-0.24-0.28-0.37
			c-0.22-0.3-0.42-0.6-0.6-0.92c-0.09-0.15-0.17-0.3-0.25-0.46c-0.02-0.05-0.04-0.07-0.05-0.1c-0.01-0.02-0.02-0.05-0.04-0.1
			c-0.14-0.33-0.25-0.67-0.38-1.01c0.01,0.04,0.02,0.08,0.03,0.13c-0.01-0.05-0.03-0.1-0.04-0.15c0,0,0,0,0,0
			c-0.02-0.06-0.04-0.14-0.04-0.15c0-0.01-0.01-0.02-0.01-0.03c-0.01-0.03-0.04-0.17-0.08-0.31c0.01,0.07,0.01,0.1-0.01-0.02
			c-0.03-0.12-0.05-0.23-0.04-0.24c0,0,0.01,0.02,0.02,0.06c-0.01-0.06-0.01-0.12-0.02-0.18c0-0.03-0.01-0.07-0.01-0.1
			c0-0.05,0-0.1,0-0.15c0.02-0.14,0.03-0.29,0.04-0.44c0.02-0.07,0.03-0.15,0.05-0.22c0.01-0.06,0.03-0.12,0.05-0.19
			c0.01-0.03,0.01-0.04,0.03-0.08c0.07-0.19,0.14-0.37,0.21-0.56c0.01-0.02,0.02-0.05,0.03-0.07c0.01-0.02,0.09-0.18,0.11-0.22
			c0.21-0.36,0.43-0.71,0.68-1.04c0.47-0.61,1.25-1.28,2.02-1.78c0.74-0.49,0.67-2.08,0.6-2.84c-0.01-0.05-0.02-0.13-0.03-0.23
			c1.66-0.66,3.47-0.16,5.16,0.76c2.05,1.11,4.17,2.4,5.95,3.9c0.67,0.56,1.15,1.05,1.56,1.8c0.01,0.02,0.02,0.05,0.04,0.08
			c0,0,0,0.01-0.01,0.02c0,0,0,0,0,0c-0.01,0.02-0.01,0.03-0.03,0.06C233.99,378.49,233.95,378.62,233.91,378.74z"/>
		<path d="M217.72,380.37c0.01,0.05,0.03,0.1,0.04,0.16c0,0.01,0.01,0.02,0.01,0.02C217.73,380.41,217.72,380.36,217.72,380.37z"/>
	</g>
	<path d="M278.91,386.76c-1.86-3.11-5.52-5.26-9.24-5.6c-0.2-0.45-0.51-0.76-0.99-0.56c-0.37,0.16-0.72,0.35-1.06,0.56
		c-1.36,0.14-2.69,0.53-3.89,1.26c-0.68,0.41-0.66,1.94-0.62,2.57c0.01,0.23,0.06,0.82,0.2,1.31c-1.04,2.28-1.56,4.86-1.74,7.22
		c-0.22,2.92-0.07,5.92,0.66,8.76c0.64,2.48,1.67,5.31,3.91,6.79c4.12,2.73,8.87-1.14,11.29-4.35
		C281.15,399.79,282.17,392.19,278.91,386.76z M278.36,395.15c-0.01,0.03-0.01,0.05-0.02,0.07c-0.01,0.02-0.01,0.03-0.02,0.05
		c-0.33,1.02-0.8,1.96-1.38,2.86c-1.8,2.78-5.29,6.01-8.91,5.33c-1.72-0.33-2.9-1.83-3.51-3.35c-0.09-0.21-0.16-0.43-0.24-0.65
		c-0.02-0.05-0.08-0.25-0.12-0.36c-0.03-0.12-0.11-0.41-0.13-0.5c-0.06-0.24-0.1-0.49-0.15-0.73c-0.02-0.08-0.03-0.13-0.04-0.17
		c0-0.02,0-0.04-0.01-0.08c-0.03-0.26-0.06-0.52-0.09-0.78c-0.02-0.18-0.03-0.36-0.04-0.53c0-0.16-0.01-0.32-0.01-0.48
		c0-0.27,0.01-0.54,0.01-0.81c0.01,0.76,0.01-0.16,0.03-0.36c0.02-0.24,0.05-0.49,0.08-0.73c0.01-0.03,0.06-0.38,0.08-0.51
		c0.06-0.3,0.13-0.6,0.2-0.9c0.02-0.07,0.04-0.14,0.06-0.22c0.02-0.05,0.06-0.2,0.09-0.28c0.13-0.39,0.42-1.13,0.49-1.29
		c0.79-1.69,2.02-3.06,3.59-3.98c0.8,0.01,1.6,0.09,2.43,0.27c2.02,0.46,3.9,1.49,5.4,2.91c0.69,0.66,1.25,1.43,1.72,2.27
		c0.13,0.23,0.33,0.73,0.48,1.18c0.02,0.06,0.03,0.1,0.04,0.12c0,0.03,0.01,0.06,0.02,0.14c0.02,0.11,0.04,0.22,0.06,0.32
		c0,0.03,0,0.04,0,0.08c0.01,0.14,0.01,0.19,0.01,0.19c0,0,0,0,0,0.01c-0.01,0.06-0.01,0.12-0.02,0.19
		c-0.01,0.08-0.02,0.16-0.03,0.25c-0.01,0.03-0.02,0.07-0.03,0.12C278.41,394.9,278.39,395.03,278.36,395.15z"/>
	<g>
		<path d="M321.12,354.92c-1.35-1.72-3.35-2.6-5.44-3.09c-2.63-0.61-5.39-0.64-8.05-0.24c-2.46,0.37-5.33,1.08-7.17,2.86
			c-0.67,0.65-0.96,4.68,0.26,4.58c-0.69,2.71-0.78,5.67-0.65,7.82c0.16,2.75,0.72,5.92,2.38,8.21c1.84,2.53,4.81,3.72,7.83,2.75
			c3.2-1.03,5.73-3.49,7.82-6.02c1.96-2.37,3.67-5.13,4.32-8.18C323,360.83,322.97,357.26,321.12,354.92z M319.67,362.47
			c-0.31,0.55-0.65,1.09-1.01,1.62c-1.56,2.29-3.49,4.39-5.79,5.94c-1.98,1.34-4.64,2.43-7,1.39c-0.58-0.25-1.11-0.62-1.58-1.04
			c-0.17-0.14-0.32-0.3-0.48-0.45c-0.03-0.03-0.05-0.05-0.06-0.06c-0.15-0.18-0.28-0.37-0.41-0.56c-0.13-0.2-0.24-0.4-0.35-0.61
			c0,0,0,0,0-0.01c-0.05-0.11-0.09-0.22-0.14-0.32c-0.09-0.22-0.16-0.45-0.24-0.68c-0.01-0.03-0.02-0.07-0.03-0.11
			c-0.03-0.12-0.06-0.24-0.09-0.36c-0.07-0.29-0.11-0.58-0.17-0.87c0.15,0.76-0.02-0.25-0.05-0.48c-0.01-0.14-0.02-0.27-0.03-0.41
			c0,0,0,0,0-0.01c0-0.01,0-0.01,0-0.02c0-0.32,0-0.64,0-0.96c0,0.03,0,0.04-0.01,0.07c0-0.03,0.01-0.07,0.01-0.1
			c0-0.02,0-0.04,0-0.07c0-0.08,0.02-0.19,0.02-0.23c0-0.04,0.01-0.08,0.01-0.12c0.01-0.14,0.08-0.59,0.08-0.65
			c0.05-0.26,0.1-0.53,0.16-0.79c0.02-0.08,0.04-0.15,0.06-0.23c-0.04,0.17,0.08-0.28,0.1-0.34c0.33-0.98,0.69-1.81,1.43-2.6
			c0.77-0.82,1.74-1.35,2.85-1.5c0.38-0.05,0.66-0.42,0.84-0.93c1.59-0.21,3.21-0.25,4.8-0.12c1.92,0.15,3.86,0.54,5.55,1.5
			c0.37,0.21,0.73,0.44,1.06,0.71c0.15,0.12,0.3,0.25,0.44,0.38c0.16,0.15,0.31,0.33,0.27,0.28c0.13,0.16,0.25,0.33,0.37,0.51
			c0.04,0.06,0.13,0.23,0.17,0.31c0.01,0.02,0.01,0.03,0.02,0.05c-0.05,0.15-0.15,0.51-0.19,0.62
			C320.05,361.78,320,361.88,319.67,362.47z"/>
		<path d="M302.26,364.15c-0.01,0.1-0.02,0.2-0.02,0.3c0,0.01,0,0.02,0,0.03C302.27,364.15,302.27,364.09,302.26,364.15z"/>
	</g>
	<path d="M345.78,289.26c-1.92-4.17-6.5-10.4-11.87-8.05c-0.77,0.34-0.5,3.56,0.17,3.36c4.14-1.23,7.59,2.02,9.62,5.29
		c1.16,1.86,2.03,3.93,2.42,6.09c0.06,0.31,0.1,0.67,0.13,1.11c0,0.01,0,0.41,0,0.5c0,0.03,0,0.05,0,0.07
		c-0.01,0.16-0.03,0.32-0.04,0.47c0,0.02-0.01,0.06-0.01,0.09c-0.02,0.09-0.03,0.18-0.06,0.27c-0.05,0.22-0.08,0.29-0.08,0.31
		c-0.14,0.42-0.24,0.65-0.49,1.03c-1.88,2.91-5.44,5.34-8.96,3.9c-3.02-1.24-5.04-4.33-5.97-7.27c-0.01-0.04-0.02-0.06-0.03-0.08
		c-0.04-0.14-0.08-0.28-0.11-0.43c-0.05-0.2-0.09-0.41-0.13-0.61c-0.01-0.04-0.02-0.09-0.02-0.13c-0.01-0.04-0.04-0.26-0.04-0.29
		c-0.01-0.07-0.03-0.34-0.05-0.47c0-0.12-0.01-0.4-0.01-0.48c0-0.08,0-0.13-0.01-0.16c0.01-0.02,0.01-0.05,0.02-0.09
		c0.02-0.09,0.02-0.19,0.03-0.28c0.02-0.1,0.13-0.51,0.11-0.48c0.2-0.63,0.4-1.08,0.89-1.64c0.57-0.66,1.35-1.12,2.15-1.43
		c0.99-0.38,0.72-4.44-0.41-3.99c-4.19,1.68-4.68,6.99-4.05,10.86c0.63,3.86,2.63,8.01,5.98,10.22c1.47,0.97,3.28,1.51,5.04,1.18
		c2.26-0.42,4.01-1.93,5.43-3.66C348.9,300.26,347.91,293.9,345.78,289.26z"/>
	<path d="M280.62,350.81c-0.42-0.65-0.83,0.09-0.96,0.52c-0.23,0.8-0.26,1.87,0.06,2.65c0.14,0.35,0.33,0.96,0.37,1.14
		c0.02,0.09,0.03,0.13,0.04,0.16c-0.01,0.03-0.01,0.08-0.02,0.18c0.03-0.5-0.06,0.51-0.03,0.29c-0.11,0.7-0.48,1.7-0.93,2.48
		c-1.06,1.88-2.9,3.56-5.02,4.13c-4.62,1.22-8.42-2.82-10.56-6.4c-0.53-0.89-1.07,0.36-1.18,0.84c-0.22,0.98-0.22,2.29,0.31,3.19
		c2.03,3.44,5.43,7.36,9.77,7.46c4.7,0.1,7.98-4.34,8.97-8.48C282.04,356.4,282.11,353.1,280.62,350.81z"/>
	<path d="M246.41,314.69c-1.08-2.91-3.64-5.11-6.19-6.74c-2.23-1.43-4.93-2.48-7.61-1.93c-5.37,1.1-8.6,6.79-9.34,11.81
		c-0.69,4.68,0.22,10.64,4.37,13.55c2.17,1.52,4.97,1.89,7.55,1.64c2.32-0.22,4.92-0.88,6.69-2.49c0.17,0.33,0.48,0.69,0.73,0.19
		C245.02,325.77,248.52,320.38,246.41,314.69z M245.64,318.94c-0.07,0.49-0.21,1-0.37,1.48c-0.68,2-1.68,3.88-2.62,5.77
		c-0.18-0.28-0.43-0.41-0.75-0.02c-1.25,1.57-3.6,2.16-5.49,2.42c-2,0.28-4.19,0.37-6.15-0.19c-1.85-0.53-3.45-1.78-4.45-3.41
		c-0.43-0.7-0.78-1.52-0.98-2.29c-0.22-0.84-0.28-1.56-0.28-2.23c0-0.45,0.01-0.56,0.08-1.17c0.04-0.29,0.13-0.76,0.23-1.2
		c0.2-0.81,0.51-1.63,0.91-2.37c1.14-2.11,2.99-4.06,5.13-5.16c4.61-2.35,10.2,1.02,13.17,4.55c0.68,0.81,1.37,1.86,1.55,2.87
		C245.72,318.49,245.7,318.47,245.64,318.94z"/>
</g>
</svg>
